<svg id="Capa_1" data-name="Capa 1" xmlns="http://www.w3.org/2000/svg" viewBox="0 0 294.45 299.16"><defs><style>.cls-1{fill:#8dc046;}</style></defs><path class="cls-1" d="M6.28,299.58a6.71,6.71,0,0,1-3.48-6.84c.48-7,.33-14,1.47-20.86,1-6.3,5.11-11.23,10.11-15.24.45-.36.85-.76,1.3-1.15-21.78-15.87-14.32-48.1,11.67-53.76q0-13.35,0-26.79c0-6.43,1.47-7.92,7.86-7.92H145c0-6.25.07-12.16-.1-18.07,0-.65-1.41-1.75-2.24-1.83a71.38,71.38,0,0,1-38.56-15.79c-15.74-12.8-25-29.28-27.11-49.54C74.55,58.24,82,38,98.63,21.38A69.8,69.8,0,0,1,141.47.94c23.64-2.59,44,4.58,60.83,21.25a69.5,69.5,0,0,1,20.8,43.88c2.52,26.52-6.75,48.28-27.11,65.23A68.72,68.72,0,0,1,157.74,147c-1.93.18-2.73.76-2.69,2.81.12,5.62,0,11.25,0,17.22H264.87c6.42,0,7.87,1.46,7.87,7.9v26.87c12.36,2.94,20.87,10.28,23.68,22.86s-1.9,22.86-12.11,30.81c6,4.57,10.8,10.13,11.82,17.55s.91,14.91.87,22.37c0,1.4-2.07,2.8-3.18,4.2h-52.6c-2.44-1.88-3.19-4.37-3-7.39.2-2.71-.08-5.46.07-8.17a75.57,75.57,0,0,1,1-11.28c1.52-7.26,5.9-12.77,11.73-17.21-21.42-15.18-15-47.93,11.58-53.81V177.16H155.28v24.53c26,5.54,32.9,37.84,11.32,53.81,6.48,4.72,11.06,10.89,12.24,18.78.91,6,.55,12.22.77,18.34.11,2.89-.66,5.35-3.27,7H123.75c-2.59-1.63-3.31-4.07-3.21-7s-.1-5.85.06-8.76a68.31,68.31,0,0,1,1.08-11.28c1.62-7.16,6-12.69,11.84-17.11-10.29-7.92-14.89-18.08-12.12-30.78s11.38-19.84,23.42-22.94V177.17H37.42v24.61c12.48,3,20.95,10.29,23.66,23S59,247.55,49,255.5c8.25,6.25,12.73,14.37,12.83,24.73,0,4-.15,8,.05,12,.16,3-.49,5.52-3,7.38ZM150,137.7C185,137.74,213.74,109,213.75,74A63.71,63.71,0,1,0,86.34,74C86.26,108.88,115,137.65,150,137.7Zm98.21,93a19.77,19.77,0,0,0,19.3,19.79c10.48.23,19.47-8.54,19.81-19.33.31-10.36-8.62-19.51-19.35-19.8C257.53,211.07,248.39,220,248.22,230.69Zm-196.34.37a19.76,19.76,0,0,0-19.37-19.71c-10.46-.18-19.52,8.73-19.73,19.42-.21,10.43,8.81,19.57,19.44,19.71A19.74,19.74,0,0,0,51.88,231.06Zm78.75-.16a19.43,19.43,0,1,0,19.45-19.55A19.53,19.53,0,0,0,130.63,230.9Zm117.68,58.59h39.25c-.22-4.34-.13-8.54-.71-12.64-1.11-7.76-5.72-12.93-13.13-15.18-7.8-2.37-14.85-.62-20.52,5.39C247.13,273.49,248.15,281.53,248.31,289.49Zm-196.5,0c0-3.92.24-7.62-.05-11.28A18.89,18.89,0,0,0,38.32,261.6a19.74,19.74,0,0,0-21.08,6.15c-5.39,6.45-4.48,14.09-4.43,21.78Zm78.76.13h37.59a8.5,8.5,0,0,0,1.25-.22c0-3.66.15-7.25,0-10.81a18.86,18.86,0,0,0-15-17.51A19.78,19.78,0,0,0,133,270.56C129.59,276.57,130.92,283,130.57,289.66Z" transform="translate(-2.78 -0.42)"/><path class="cls-1" d="M167.19,73.59c2.91,3.6,6.26,6.73,8.29,10.57a37,37,0,0,1,3.68,12.37c.67,5.17.45,10.48.4,15.73,0,3.92-1.89,5.95-5.65,6q-23.79.14-47.6,0c-2.58,0-5.33-1-5.36-3.87-.08-7.74-.27-15.59.82-23.22,1-7.13,5.72-12.6,11.74-17.13-9.54-7.25-14-16.7-12.6-28.48a27.82,27.82,0,0,1,9.47-17.89,29.48,29.48,0,1,1,36.81,45.93Zm-17-4.69a19.42,19.42,0,1,0-19.54-19.3A19.26,19.26,0,0,0,150.18,68.9Zm4.91,11.28c0,4.27.06,8.26,0,12.23s-1.9,6-4.88,6.1-5-2.14-5.14-6.12c-.06-1.75,0-3.5,0-5.25V79.83a39.26,39.26,0,0,0-3.95,1.52c-10.22,5.44-11.64,14.72-10,26.75h38.1C171,93.25,167.2,83.15,155.09,80.18Z" transform="translate(-2.78 -0.42)"/></svg>