<svg id="Capa_1" data-name="Capa 1" xmlns="http://www.w3.org/2000/svg" viewBox="0 0 295 296.37"><defs><style>.cls-1{fill:#8dc046;}</style></defs><path class="cls-1" d="M229.06,248.38c4.12,1.37,4.95,2.47,4.95,6.54v37.14c0,4.51-1.63,6.12-6.14,6.12H161c-4.68,0-6.22-1.58-6.22-6.33V255.33c0-4.52.61-5.41,5-7.11V202.81c0-17.32,7.58-30.53,22.31-39.5,13.92-8.41,28.08-16.45,42.06-24.76a7.93,7.93,0,0,0,3.12-3.81c7.19-20.36,14.24-40.76,21.31-61.22A20,20,0,0,1,269.26,59.7,18.55,18.55,0,0,1,286.7,75.36a18.54,18.54,0,0,0,5.92,11.26,17,17,0,0,1,4.21,16.66q-11,41.29-22,82.27a23.94,23.94,0,0,1-7.7,11.71c-10.41,9.24-20.69,18.62-31.24,27.64A17.77,17.77,0,0,0,229,240C229.16,242.81,229.06,245.52,229.06,248.38Zm-9.88.14c0-3.12.12-5.92,0-8.87-.41-9.14,3.26-16.27,10.11-22.17,10.29-8.91,20.5-17.93,30.49-27.17a19.13,19.13,0,0,0,5.53-8.32c7.41-26.73,14.46-53.59,21.72-80.41a9.12,9.12,0,0,0-2-8.63,8.68,8.68,0,0,0-8.81-3.27,10.2,10.2,0,0,0-8.09,7.24c-4.53,14-9,28-13.63,42-1.12,3.35-2.25,6.49,0,9.87a9.87,9.87,0,0,1,.87,4.19,18.52,18.52,0,0,1-9.22,18.79c-9.38,5.79-19,11.22-28.65,16.51a6.49,6.49,0,0,1-5.61-.13,6,6,0,0,1-1.86-5,6.52,6.52,0,0,1,3.2-3.75c8.67-5.18,17.44-10.19,26.18-15.21a10,10,0,0,0,5.75-7.9,9.41,9.41,0,0,0-4.28-9.34,9.61,9.61,0,0,0-10.79,0q-21,12.35-42.12,24.67c-12.32,7.18-18.3,18-18.36,32.14s0,27.87,0,41.79v3.14ZM224,258.79H164.92v29.32H224ZM277.32,79.33c-.69-5.49-3.95-9.08-8.37-9.6a10.45,10.45,0,0,0-10.77,7.07c-1.38,4-2.7,7.78-4,11.65-5.39,15.52-10.79,31-16.2,46.68l6.44,2c4.37-13.45,9-26.74,13-40.23,2.95-10.26,8.95-16.46,19.89-17.55Z" transform="translate(-2.5 -1.82)"/><path class="cls-1" d="M139.92,248.34c4.13,1.42,4.94,2.51,4.94,6.5V292c0,4.57-1.6,6.2-6.07,6.2H71.66c-4.35,0-5.93-1.65-5.93-5.92V255.12c0-4.29.71-5.28,4.92-6.78,0-3.67.16-7.38,0-11.08a16,16,0,0,0-5.93-11.45c-10.44-9.2-20.77-18.54-31.24-27.64a29.47,29.47,0,0,1-9.3-15.27Q14,144.64,3.59,106.56C.94,96.84,3,88.91,11.17,82.73a3.72,3.72,0,0,0,1.13-2.85A19.57,19.57,0,0,1,28.35,60a20.42,20.42,0,0,1,23,14q10.45,30.65,21.18,61.21a6.39,6.39,0,0,0,2.61,3.1c14.08,8.38,28.28,16.53,42.32,25,14.79,8.89,22.37,22.06,22.47,39.36C140,217.79,139.92,232.94,139.92,248.34Zm-10,.2c0-16.29.41-32.29-.14-48.24-.43-12.34-6.58-22-17.3-28.32-14.16-8.41-28.39-16.68-42.65-25-5.49-3.2-11.38-1.83-14.2,3.16S54.53,160.77,60.12,164C69,169.1,77.8,174.17,86.6,179.31c3.26,2,4.21,4.84,2.59,7.48s-4.34,3.06-7.58,1.21c-9-5.18-18-10.33-27-15.62-9.59-5.65-12.75-15.94-8.27-26.15a4.63,4.63,0,0,0,.43-2.88c-5-15.8-10-31.6-15.3-47.24a9.88,9.88,0,0,0-14.79-5c-3.79,2.64-5,6.87-3.51,12.42,6.69,24.8,13.54,49.58,20,74.46a27.29,27.29,0,0,0,9.12,14.58c9.88,8.51,19.75,17.32,29.43,26a24.8,24.8,0,0,1,8.82,20v9.87ZM75.66,288h59.05v-29.3H75.66ZM61.84,135.11c-1-2.92-2-5.74-2.92-8.55q-8.6-24.75-17.18-49.5a10.63,10.63,0,0,0-11.51-7.29,9.51,9.51,0,0,0-7.57,9.46c11.85,2.37,16,5.92,19.75,17.77Q48.89,117,55.34,136.91Z" transform="translate(-2.5 -1.82)"/><path class="cls-1" d="M149.89,16.3A52,52,0,0,1,176.41,2.63c25.38-4.93,52,13.09,56.93,38.57A48.83,48.83,0,0,1,219.2,87.29q-32.07,32.22-64.29,64.33c-4.09,4.09-6.06,4.11-10.09,0C123,129.82,100.94,108.08,79.24,86A49.36,49.36,0,0,1,99,4.57C116.66-1.2,132.77,2.2,147.11,14Zm-.18,125.94c21.73-21.58,43.23-42.79,64.46-64.29a35.54,35.54,0,0,0,10.15-26.17c-.12-15.4-6.81-27.27-20.28-34.73s-27.11-6.91-40.23,1.16a75,75,0,0,0-9.87,8.36c-2.9,2.56-5.33,2.66-8.12,0-1.42-1.35-2.76-2.79-4.2-4.13A39.53,39.53,0,1,0,87.1,79.7c20.26,20.44,40.68,40.68,61,61.08C148.63,141.28,149.16,141.75,149.71,142.24Z" transform="translate(-2.5 -1.82)"/><path class="cls-1" d="M135,55.49v-14c0-3.94,1.72-5.72,5.57-5.76h18.56c3.95,0,5.55,1.8,5.57,5.74V55.49h13.27c5.1,0,6.54,1.47,6.54,6.64V78.54c0,5.27-1.44,6.65-6.83,6.67h-13V99c0,4.46-1.66,6.06-6.2,6.08h-17c-5,0-6.5-1.5-6.52-6.38V86.38a3.34,3.34,0,0,0-.19-1.07H121.63c-5.09,0-6.53-1.48-6.53-6.65V63.12c0-6.48,1.08-7.59,7.44-7.59Zm-9.75,19.75h10c9.26,0,9.6.36,9.6,9.48V94.91h9.87V81.42c0-4.42,1.6-6.1,6.12-6.1h13.51V65.45h-9.28c-10.35,0-10.39,0-10.39-10.23V45.74h-9.87v14c0,3.95-1.76,5.63-5.67,5.65h-14Z" transform="translate(-2.5 -1.82)"/></svg>