<svg id="Capa_1" data-name="Capa 1" xmlns="http://www.w3.org/2000/svg" viewBox="0 0 362.5 400"><defs><style>.cls-1{fill:#8ec047;}</style></defs><path class="cls-1" d="M196.33,400c-2.44-1.49-5.36-1.51-8-2.58-9.87-4.06-17.43-10.68-22.21-20.27a5.77,5.77,0,0,0-3.69-3.39c-11.19-3.66-17.7-12.87-17.72-24.7,0-11.19,0-22.39,0-33.58s-4.17-20.49-13.4-27.15A127.54,127.54,0,0,1,86.8,231.94C68,185.8,79.43,131.1,115.29,96.55c3.38-3.25,6.47-3.54,9.22-.86s2.36,6.16-1,9.54c-16.1,16.11-27.25,35.1-31.27,57.57-8.18,45.72,6,83.59,42.18,112.65,10.39,8.35,19.1,17.12,21.38,30.75.4,2.44,2.32,1.63,3.7,1.63q23.06.07,46.09,0c2,0,3.88.16,5.46,1.57a5.69,5.69,0,0,1,1.67,6.38,5.09,5.09,0,0,1-4.87,3.82c-2.34.12-4.68.11-7,.11-13.54,0-27.08.12-40.62-.08-3.21-.05-3.82,1-3.76,3.92.19,8.32,0,16.66.08,25,.06,8.77,5.52,14.52,14.3,14.57q32.61.19,65.22,0c8.6-.06,14.08-5.78,14.17-14.3.09-8.73-.08-17.45.08-26.17,0-2.5-.76-3-3.1-3-5.33.17-10.67.11-16,0-3.88-.06-6.49-2.41-6.6-5.69-.12-3.43,2.65-6.06,6.64-6.12q8.4-.11,16.79,0c1.85,0,2.7-.41,3.1-2.45,2.24-11.5,8.49-20.44,17.91-27.29,23.05-16.76,38.09-38.92,44.88-66.66C328.71,150.94,289.52,88.15,228.62,75q-45.51-9.87-85.19,14.47c-2.59,1.58-5.08,2.72-7.93.81A5.76,5.76,0,0,1,133,84.49c.24-2.51,1.91-3.8,3.85-5,16.65-10.4,34.65-16.89,54.26-18.59,41.07-3.56,75.94,9.65,104.25,39.48,18.21,19.17,29.25,42.13,32.28,68.48,5.54,48.27-11.28,87.48-49.51,117.18-11,8.54-16.72,18.61-16.21,32.54.38,10.27.1,20.57.07,30.85,0,11.38-6.53,20.52-17.34,24.17a6.48,6.48,0,0,0-4.09,3.51c-6.37,12.28-16.27,19.94-30.07,22.27-.31.05-.56.41-.84.63Zm-17.54-24.86c6.36,8.81,14.64,13.11,24.8,13,10-.08,18.12-4.36,24.32-13Z" transform="translate(-22.11)"/><path class="cls-1" d="M289.25,194c0,3.52,0,7,0,10.55,0,5-1.88,7.1-6.77,7.8-4.11.59-8.22,1.12-12.34,1.68-.72.1-1.55-.15-1.95.83-1.44,3.47-2.95,6.9-4.37,10.37-.44,1.06.55,1.64,1.06,2.32,2.56,3.45,5.2,6.83,7.71,10.31s2.43,5.85-.63,9c-5.28,5.4-10.66,10.7-16,16-2.74,2.71-5.7,2.75-8.75.5-1.26-.92-2.5-1.86-3.75-2.8-8.53-6.4-8.49-6.3-18.27-2.14-2,.84-1.92,2.29-2.16,3.7-.67,4-1.11,8-1.7,11.95s-2.47,5.66-6.53,5.69c-7.55.07-15.1.06-22.65,0-4.3,0-6.08-1.66-6.75-5.88-.22-1.41-.55-2.8-.7-4.22-1.18-11.12-1.19-11.07-11.54-14.78-1.56-.56-2.44.07-3.48.86-3.21,2.44-6.41,4.89-9.66,7.27-3.85,2.81-6.32,2.68-9.64-.58q-7.79-7.68-15.48-15.45c-3.23-3.28-3.37-5.57-.66-9.28,2.45-3.36,5-6.64,7.48-10,.63-.86,1.7-1.48,1-3-1.46-3-2.71-6.15-3.91-9.29a2,2,0,0,0-2-1.42c-4-.48-8-1.1-12-1.58-5.38-.64-7.34-2.71-7.36-8q0-10.16,0-20.31c0-5.47,1.77-7.45,7.2-8.19q6-.81,12-1.64c.71-.1,1.52.18,1.93-.83,1.42-3.47,2.95-6.9,4.34-10.38.39-1-.55-1.62-1.08-2.32-2.58-3.43-5.21-6.82-7.72-10.29s-2.39-5.85.67-9q7.81-7.94,15.76-15.72c3.16-3.1,5.63-3.24,9.32-.56,3.36,2.45,6.69,4.95,10,7.52,1.27,1,2.4,1.41,3.84.39a5.2,5.2,0,0,1,2.1-1c6.53-1,8.85-5.19,8.76-11.29a11.72,11.72,0,0,1,.13-1.56c1.2-9.56,1.52-11.08,11.57-10.75,6.12.2,12.24,0,18.36,0,4.29,0,6.14,1.67,6.77,5.86a54.71,54.71,0,0,0,.89,6.16c.77,2.88-.37,6.77,1.85,8.54,2.82,2.25,6.75,3.08,10.21,4.52,1.23.51,1.93-.46,2.73-1,3.34-2.48,6.62-5,10-7.49s6-2.46,9,.48q8.12,7.91,16,16c3,3.07,3.09,5.38.48,9s-5.08,6.92-7.75,10.27a2.82,2.82,0,0,0-.44,3.44c1.23,2.56,2.23,5.23,3.28,7.87.49,1.24,1,2.06,2.64,2.19,3.87.3,7.71,1,11.57,1.54,5.66.75,7.42,2.7,7.43,8.39C289.26,187.51,289.25,190.77,289.25,194Zm-133.1-56.68a7.06,7.06,0,0,0-1.27.81c-2.59,2.55-5.14,5.16-7.76,7.7-1.17,1.14-.18,1.82.41,2.61,2.41,3.22,4.83,6.45,7.26,9.66,1.63,2.18,2.07,4.52.65,6.91a64.71,64.71,0,0,0-6.6,15.71,5.75,5.75,0,0,1-5.21,4.52c-3.47.45-6.93,1.09-10.41,1.46-2.66.28-4.41.95-3.92,4.23a24.53,24.53,0,0,1,0,6.63c-.4,3,1.16,3.76,3.72,4,3.23.31,6.42,1,9.64,1.28,3.86.31,5.82,2.48,6.65,6a33,33,0,0,0,4.4,11.16c3.37,4.93,2.81,8.93-1.08,13.22-2.32,2.56-6.22,5.61-5.69,8.39.58,3,4.74,5.21,7.17,7.91,1.39,1.55,2.42,1.35,3.88.16,2.83-2.29,5.85-4.34,8.69-6.61a6.66,6.66,0,0,1,8.27-.64,54,54,0,0,0,14.29,5.92c3.57.91,5.08,3.2,5.49,6.65.44,3.74,1.06,7.45,1.53,11.19.13.95.1,1.82,1.42,1.8,4-.06,8.46.9,11.94-.5,2-.82,1.33-5.62,1.76-8.65.16-1.15.49-2.29.56-3.45.25-3.82,1.93-6.19,5.88-7.13s8.1-2.21,11.49-4.58c4.78-3.33,8.75-2.74,12.92,1,2.59,2.32,5.68,5.83,8.44,5.74,3.11-.1,5.18-4.64,8-6.95,1.74-1.44,1.54-2.51.21-4.11-2.31-2.79-4.33-5.84-6.61-8.68a6.48,6.48,0,0,1-.53-8.23c2.15-3.55,4.23-7.27,4.93-11.35,1.12-6.57,5.24-8.41,11.21-8.81,9.48-.62,9.47-.83,9.47-10.16a5.71,5.71,0,0,1,0-1.17c.69-3.24-1.19-4-3.87-4.24-3.35-.34-6.67-1-10-1.37a6.12,6.12,0,0,1-5.74-5,58.74,58.74,0,0,0-6.26-15,5.92,5.92,0,0,1,.46-7.23c1-1.23,1.91-2.47,2.83-3.73,1.82-2.51,5.13-5.15,5-7.55s-4-4.39-5.9-6.82c-2.21-2.84-4.06-2.71-6.51-.32-1.85,1.8-4.23,3-6.18,4.75-3.4,3-6.8,3.24-10.62.81a35.72,35.72,0,0,0-11.42-4.76c-4.7-1.05-7.12-3.57-7.27-8.58-.11-3.74.2-8.56-1.9-10.87s-7.13-.5-10.86-.77c-.26,0-.52,0-.78,0-1.54-.2-1.9.55-2.05,2-.37,3.74-1,7.45-1.51,11.19-.41,3.27-1.86,5.55-5.25,6.43A57.94,57.94,0,0,0,174.81,146a6.5,6.5,0,0,1-7.94-.6c-2.75-2.18-5.61-4.21-8.43-6.31C157.72,138.5,157,138,156.15,137.34Z" transform="translate(-22.11)"/><path class="cls-1" d="M197.27,23c0-5.2,0-10.4,0-15.6,0-4.82,2.21-7.41,6.07-7.4s6,2.6,6,7.43q.08,15.6,0,31.19c0,4.79-2.29,7.47-6.08,7.46s-6-2.68-6-7.48C197.24,33.4,197.27,28.2,197.27,23Z" transform="translate(-22.11)"/><path class="cls-1" d="M44.76,186.91c-5.33,0-10.66.06-16,0-4.33-.07-6.68-2.24-6.66-5.9s2.48-5.92,6.67-5.94q16.38-.08,32.75,0c4.13,0,6.66,2.38,6.67,5.95s-2.35,5.82-6.68,5.89C55.94,187,50.35,186.91,44.76,186.91Z" transform="translate(-22.11)"/><path class="cls-1" d="M361.5,186.91c-5.46,0-10.92.06-16.38,0-4.31-.07-6.65-2.26-6.61-5.93s2.51-5.88,6.71-5.9q16.38-.08,32.75,0c4.11,0,6.65,2.42,6.64,6s-2.43,5.77-6.74,5.84C372.42,187,367,186.91,361.5,186.91Z" transform="translate(-22.11)"/><path class="cls-1" d="M78.83,51.28a7,7,0,0,1,5.39,2.34c7.61,7.63,15.28,15.21,22.87,22.87,3.14,3.17,3.31,6.68.66,9.22S101.89,88,98.81,85C91.06,77.3,83.4,69.53,75.62,61.87a6.21,6.21,0,0,1-1.7-7.08A5.27,5.27,0,0,1,78.83,51.28Z" transform="translate(-22.11)"/><path class="cls-1" d="M302.93,87.46a6.19,6.19,0,0,1-5.34-3.79,5.55,5.55,0,0,1,1.3-6.43c3.26-3.36,6.6-6.64,9.91-9.95,4.6-4.59,9.16-9.21,13.82-13.74,2.95-2.88,6.5-3,9-.56s2.22,6.08-.64,9c-7.69,7.75-15.44,15.43-23.15,23.15A7.23,7.23,0,0,1,302.93,87.46Z" transform="translate(-22.11)"/><path class="cls-1" d="M147,31.82a5.67,5.67,0,0,1,5.68,3.87c1.58,4.07,3.27,8.12,4.74,12.24a5.83,5.83,0,0,1-3.13,7.41,5.93,5.93,0,0,1-7.63-2.78,134.07,134.07,0,0,1-5.25-13.69C140.29,35.28,143.22,31.87,147,31.82Z" transform="translate(-22.11)"/><path class="cls-1" d="M265.65,38c-1.88,5.16-3.33,11-6.67,15.91-1.6,2.36-4.55,2.47-7,1.1s-3.87-3.68-2.9-6.51c1.58-4.62,3.34-9.2,5.37-13.64,1.3-2.84,4-3.55,7-2.79C264.08,32.78,265.18,34.93,265.65,38Z" transform="translate(-22.11)"/><path class="cls-1" d="M78,129.81a5.76,5.76,0,0,1-7.29,5.46,97.78,97.78,0,0,1-13.33-5.13A5.2,5.2,0,0,1,54.67,123c1.32-3.15,3.81-4.64,7.16-3.52,4.27,1.42,8.45,3.12,12.62,4.83C76.86,125.24,77.85,127.31,78,129.81Z" transform="translate(-22.11)"/><path class="cls-1" d="M352.51,125.38a5.84,5.84,0,0,1-3.7,5.06c-3.92,1.64-7.86,3.26-11.87,4.65-3.6,1.24-6.72-.3-7.86-3.56s.14-6,3.68-7.45c4-1.71,8.1-3.37,12.27-4.7C348.76,118.19,352.5,121.16,352.51,125.38Z" transform="translate(-22.11)"/><path class="cls-1" d="M203.29,232.08A37.92,37.92,0,1,1,241.52,194,38.12,38.12,0,0,1,203.29,232.08Zm26.09-37.8a26,26,0,1,0-26.34,26A26.17,26.17,0,0,0,229.38,194.28Z" transform="translate(-22.11)"/></svg>