<svg id="Capa_1" data-name="Capa 1" xmlns="http://www.w3.org/2000/svg" viewBox="0 0 400 400.02"><defs><style>.cls-1{fill:#8ec047;}</style></defs><path class="cls-1" d="M400,396.82c-2.43,2.59-5.38,3.21-8.92,3.2Q200,399.9,8.86,400C1.6,400,.15,398.52.15,391.4q0-22.26,0-44.52c0-5.94,1.91-7.81,8-7.81,16.92,0,33.84-.09,50.75.08,3,0,3.61-.86,3.61-3.7,0-9.46-1-19,1.95-28.28,5.59-17.82,17.31-29.78,34.9-36,4.75-1.68,9.53-3.28,14.34-4.93-.36-1.45-1.67-2-2.53-2.85a38.48,38.48,0,0,1-11.73-27.56c-.07-7.64-.62-15.31,1.47-22.86,4.79-17.29,21.93-29.6,39.93-28.47,18.31,1.14,34.13,15.38,36.39,33.27a99.56,99.56,0,0,1,0,23.78c-1,8.74-5,15.4-13.92,24.56,4.81,1.69,9.46,3.34,14.12,5,23.5,8.22,37.38,27.73,37.43,52.65,0,4.17.1,8.34,0,12.5-.07,2.07.34,2.93,2.7,2.9,12.88-.12,25.76-.06,38.65,0,1.18,0,2.25,0,3.08-1.14,8.46-11.5,20.8-16.72,33.85-20.76,1.85-.58,3.67-1.26,5.46-1.88.4-.82-.15-1.2-.63-1.64-7.77-7.18-12.37-16-13-26.58-.48-7.9-.85-15.86,1.05-23.67,4.63-19.11,21.28-31,41.79-29.82,17.36,1,32.58,15.87,34.89,34.27a88.6,88.6,0,0,1-.23,23.74c-1,7-3.94,11.89-13.53,23.51,5.18,1.8,10.3,3.4,15.29,5.33,19.44,7.51,31.44,21.31,35.16,42,.05.29.45.52.69.77ZM131.69,351.24c-38.52,0-77,.05-115.55-.09-3.52,0-4.32.92-4.23,4.3.25,9.5.27,19,0,28.51-.1,3.49.86,4.24,4.28,4.24q113.81-.17,227.6,0c3.25,0,4.07-.78,4-4-.09-9.71-1.09-19.56,2.32-29,1.17-3.23.72-4.05-2.88-4C208.73,351.29,170.21,351.24,131.69,351.24Zm192,36.88c20.29,0,40.58-.07,60.87.07,2.91,0,3.85-.68,3.66-3.65-.27-4.28,0-8.59-.09-12.87-.5-17.16-7.79-30.67-23.53-37.77-14.06-6.34-28.55-12.5-44.77-10.49-3.57.45-7.22-.4-10.78.9-6.67,2.44-13.41,4.67-20.12,7-14.08,4.9-23.56,14.34-27.73,28.72-2.28,7.84-1.27,16-1.59,24-.13,3.17.67,4.15,4,4.13C283.63,388,303.66,388.12,323.69,388.12ZM138.48,339.07h9.37c17.18,0,34.35,0,51.52-.05,1.13,0,3.24,1.08,3.21-1.44-.08-7.54.88-15.17-.53-22.6-3.39-17.86-14.76-28.47-31.75-33.76-2.44-.77-2.93.66-3.74,2.07Q155.79,302,145,320.7c-4.12,7.14-8.8,7.13-12.92,0q-10.8-18.69-21.58-37.38c-.76-1.31-1.13-2.82-3.37-2.15C91.42,285.9,80.3,295.3,75.78,311.62c-2.16,7.8-1.1,15.76-1.49,23.65-.15,2.91.49,3.91,3.7,3.88C98.15,339,118.32,339.07,138.48,339.07Zm212.4-60.56c0-2.21,0-4.42,0-6.63-.26-14-10.69-24.9-25.18-26.43-12.52-1.33-25.14,8.09-28.11,20.94-1.4,6.05-.67,12.18-.67,18.27,0,13.93,9.88,24.59,24.4,26.68,11.91,1.72,24.69-6.78,28.49-18.9C351.23,287.87,350.83,283.18,350.88,278.51ZM165.7,230.77c0-3.28.07-5.63,0-8-.45-13-10.87-24.64-23.15-26-14.31-1.55-26.46,6.36-30,19.68-1.8,6.77-1.13,13.72-.8,20.57.57,11.52,6.7,19.59,17.28,23.64s20.47,1.79,28.7-6.19C164.68,247.76,166.33,239.13,165.7,230.77Zm-26.93,76.68L154,281.09c2.8-4.86,2.35-5.72-3.26-6.28a13.54,13.54,0,0,0-1.56,0c-7,0-14,0-21.06,0a17.6,17.6,0,0,0-5.3,1c-1.83.55-2,1.25-1,3,4.36,7.35,8.5,14.83,12.83,22.2C135.88,303.11,136.81,305.56,138.77,307.45Z" transform="translate(0)"/><path class="cls-1" d="M211.79,0c5.78,1.62,11.57,3.2,16.47,6.94,10.52,8,16,18.59,15.52,31.9-.1,3,.72,3.69,3.63,3.62,8.71-.21,17.43-.14,26.15-.05,4.86,0,7.48,2.66,7.09,6.77-.33,3.5-2.81,5.41-7.25,5.42-11.45,0-22.9,0-34.35,0-14.83,0-29.66,0-44.49,0-15,.05-26.19,10.54-26.33,25.45q-.4,41,0,82c.14,14.89,11.36,25.44,26.3,25.48,15.09,0,30.18.06,45.27,0a9.83,9.83,0,0,1,7.61,3.12c8.12,8.26,16.36,16.4,24.52,24.62a25.79,25.79,0,0,1,2.25,3l1-.64c0-7.23,0-14.45,0-21.67,0-6.33,2.09-8.39,8.44-8.39,25.76,0,51.53-.36,77.29.15,13.3.26,27.32-9.4,27.26-27.1-.08-26.29,0-52.58,0-78.87,0-16.37-10.8-27.09-27.07-27.12-18.73,0-37.47,0-56.21,0a10.76,10.76,0,0,1-4.59-.53,5.81,5.81,0,0,1-3.81-5.79,5.71,5.71,0,0,1,4.26-5.46,14.84,14.84,0,0,1,4.63-.43h53.87c21.34,0,34.38,10,40.17,30.69.05.16.4.24.61.36v96.08c-1.26.27-.91,1.47-1.15,2.22-5.67,17.86-19.35,28-38,28-23.17,0-46.33.08-69.49-.08-3.33,0-4.05.88-4,4.06.23,9,0,18,.1,26.94,0,3.29-.3,6.35-3.75,7.86-3.67,1.6-6.08-.54-8.48-3-11.18-11.27-22.46-22.45-33.61-33.75a6.91,6.91,0,0,0-5.49-2.12c-13.79.09-27.59.13-41.38,0-19.41-.14-34.18-12.43-38-31.42a40.66,40.66,0,0,1-.38-9c0-1.87-.52-2.42-2.4-2.41q-25.56.1-51.14,0c-2.27,0-2.48.95-2.47,2.79.07,9.63,0,19.27,0,28.9,0,3.14-.36,6-3.77,7.39s-5.66-.41-7.89-2.64C77.53,182.15,66.26,171,55.12,159.66a8.27,8.27,0,0,0-6.43-2.73c-7.11-.05-14.23.69-21.3-1.33-15.8-4.54-27.16-19-27.23-35.36-.06-13.66,0-27.33,0-41C.16,74.79,2.39,72,6,72s6,2.7,6,7.1c0,12.63,0,25.25,0,37.88,0,17.5,10.7,28.94,28.13,27.88,12.51-.76,21.9,2.42,29.72,12.36,5.23,6.67,11.89,12.21,18.56,18.9,0-8.24,0-15.59,0-22.94,0-6.22,1.81-8,8.15-8,18.61,0,37.22-.1,55.82.08,3.32,0,4-.92,4-4.1-.15-19.91.36-39.84-.2-59.74-.53-18.72,13.88-38.93,38.82-39,11.19,0,22.39-.09,33.57,0,2.63,0,3.53-.53,3.51-3.36-.1-15.71-10.78-27.15-26.44-27.19q-83.74-.21-167.47,0C22.81,12,12.24,23.08,12,38.48c-.06,3.91.06,7.81,0,11.72s-2.42,6.29-5.9,6.3S.1,54,.18,50.19c.16-7.38-1-14.89,1.09-22.13C5.2,14.46,13.92,5.44,27.58,1.31c1-.3,2.43,0,3-1.31Z" transform="translate(0)"/></svg>