<svg id="Capa_1" data-name="Capa 1" xmlns="http://www.w3.org/2000/svg" viewBox="0 0 400 400.03"><defs><style>.cls-1{fill:#8dc046;}</style></defs><path class="cls-1" d="M399.93,218.92c-2,3.17-4.87,4-8.55,4q-124.8-.14-249.58-.15c-3.44,0-4.45.72-4.44,4.34.15,40,.1,79.94.1,119.91v4.65a77.08,77.08,0,0,1,14.7-14.91,70.23,70.23,0,0,1,17.37-9.54c-.16-.41-.19-.89-.44-1.1-9.24-7.73-13-17.85-12.87-29.63.1-7.25-.71-14.53,1.44-21.7,5.32-17.68,22.57-29.15,40.67-26.83a37.6,37.6,0,0,1,32.85,37.11c0,5.85.17,11.74-.39,17.55-.93,9.7-5.35,17.76-13.4,24.29,17.54,7,30.31,18.67,38.79,35.76,8.47-16.95,21.06-28.69,38.21-35.44.15-1.33-1-1.67-1.74-2.33a34.62,34.62,0,0,1-11.35-25.61c-.15-8.28-1.05-16.63,1.42-24.81,5.3-17.54,23.14-29.13,40.92-26.47,18.79,2.81,32.48,18.3,32.51,37,0,6.49.42,13-.64,19.47a35.23,35.23,0,0,1-10.62,20.29c-.71.7-1.83,1.08-2,2.36,19.77,8.09,33.64,21.92,40.79,42.21a62.48,62.48,0,0,1,3.71,21.36c0,4.38-2.22,7-6,7.14-3.95.15-6.36-2.41-6.54-6.95-1.11-27.49-18.68-48.5-45.49-54.39-30.77-6.77-63.05,16.4-66.3,47.6-.24,2.33-.53,4.66-.66,7-.25,4.29-2.56,6.8-6.38,6.75s-5.92-2.57-6.17-6.95c-1.43-24.47-13-42.3-35.83-51.5-34.16-13.76-71.55,8.92-76,45.49-.26,2.06-.49,4.13-.6,6.21-.24,4.29-2.56,6.8-6.37,6.75s-5.93-2.56-6.18-6.94c-1.31-23.64-12.3-41.13-34-50.79-34.29-15.23-73.25,7.41-77.81,44.76-.27,2.2-.46,4.4-.61,6.6-.26,3.95-2.69,6.41-6.35,6.37S-.1,395.24,0,391.26c.72-27.11,13.16-47.18,36.64-60.51,2.46-1.4,5.15-2.41,7.91-3.67-.69-1.84-2.49-2.8-3.73-4.18a37.38,37.38,0,0,1-8.67-16.75c-.39-1.7-.77-2.51-2.67-3.08-14.93-4.49-23.26-15.93-23.26-31.59,0-24,.47-47.93-.13-71.87C5.46,174,26.45,152.87,51.75,154.08c.78,0,1.56,0,2.37,0,.36-1.38-.87-1.8-1.45-2.51a38.05,38.05,0,0,1-8.89-24.76c0-7.78-1-15.67,1.1-23.31C48.83,89.19,57.94,79.5,72,74.79c2.65-.89,3-2,3-4.33C74.93,49,75,27.49,74.89,6c0-3.61,1-6.24,4-8.15q158.77,0,317.54-.08c2.93,0,3.59.66,3.59,3.59Q399.87,110.15,399.93,218.92Zm-286.2-64.84c21.86,0,42.92,0,64,0,1.81,0,2.44-1.16,3.33-2.22,8.89-10.53,17.09-21.64,26.54-31.71,3.9-4.15,8.32-7.74,14-8.71,3.32-.58,3.43-2.14,3.42-4.69-.07-13.27,0-26.55,0-39.83,0-12.49,0-25,0-37.49,0-4.84,4.14-8,8.35-6.35,3.19,1.23,4.19,3.79,4.18,7.15-.08,26,0,52.07-.08,78.1,0,2.08.36,3.33,2.44,4.55,6.64,3.89,9.86,9.87,10.17,17.68.26,6.65-3.49,11.28-7.16,15.93-12.57,15.93-25.35,31.69-37.92,47.61a8.84,8.84,0,0,1-7.62,3.71c-16.92-.08-33.84,0-50.76,0-9.13,0-8.95-.05-9.2,8.88-.08,3.27,1.08,3.68,3.91,3.67q121.26-.1,242.5,0c3.19,0,3.72-1,3.72-3.86q-.14-64.24-.07-128.48c0-21.34-.07-42.69.09-64,0-3.14-.87-3.91-3.85-3.74-4.41.25-8.84.07-13.27.07q-139.6,0-279.21-.07c-3,0-3.82.73-3.79,3.78.15,18.48.1,37,0,55.45,0,2.18.19,3.12,2.89,3.61,17.31,3.14,28.58,13.26,33.48,30.23,1.94,6.74,1,13.71,1.17,20.58C125.24,135.16,122,145.15,113.73,154.08ZM125,352v-5.34q0-76.53,0-153.06c0-6.45,1.82-8.24,8.36-8.24q29.67,0,59.35,0c2,0,3.6-.21,5-2q18.75-23.72,37.7-47.27c2.33-2.91,3.1-6.06,1.22-9.36-2-3.51-5.36-4.21-9.12-3.68-5.12.72-8.73,3.87-11.86,7.59-8.8,10.44-17.66,20.84-26.14,31.54-2.68,3.38-5.6,4.48-9.65,4.46-17.44-.06-34.88.08-52.32.08-25.51,0-51-.14-76.53-.08-17.72,0-31.7,12.55-32.08,29.89-.57,25.63-.23,51.27-.14,76.91,0,6.37,5,15.24,12.43,16.25q0-45.32,0-90.59c0-4.94,2.26-7.56,6.38-7.49,3.9.07,6.11,2.69,6.11,7.36q0,26.16,0,52.32v5.35c1.38.06,1.83-.88,2.52-1.37A37.59,37.59,0,0,1,105,275.55c2,7.17,1.18,14.47,1.19,21.72,0,11.33-3.77,21.09-12.54,28.62a5.29,5.29,0,0,0-.81,1.25C105.75,332.15,116.19,340.18,125,352Zm-12.51-232a69.26,69.26,0,0,0-.68-12c-2.34-12.68-14.33-22.58-27.51-22.53S59.19,95.3,56.9,108.05c-1.14,6.34-.87,12.72-.56,19,.72,14.49,11.28,25.23,25.93,26.86,12.59,1.41,25.31-7.59,29-20.52C112.56,129,112.56,124.48,112.45,119.93ZM93.68,292.55c0-3.3.09-5.51,0-7.72-.6-13-9.81-22.8-22.92-24.38-11-1.33-22.7,6.38-25.74,17.72a52.54,52.54,0,0,0-.08,26.62c2.79,11,13.86,18.65,24.86,18a25.06,25.06,0,0,0,23.33-20.42C93.84,298.71,93.56,295.09,93.68,292.55Zm75-1.75c0,2.83-.05,4.92,0,7a25.24,25.24,0,0,0,23.6,24.94c12.28,1,23.45-8.08,25.85-21.06,1.08-5.81.72-11.7.39-17.51-.73-12.89-10.21-22.42-23.09-23.75-11-1.13-22,6.51-25.53,17.62C168.54,282.46,168.64,287,168.71,290.8Zm175,2c0-2.94,0-5,0-7.1-.31-13.73-10.19-24.26-23.67-25.27-12.31-.92-23.41,8.13-25.81,21.13-1.07,5.8-.7,11.69-.37,17.51.74,12.83,10.28,22.39,23.16,23.69,11,1.11,22-6.58,25.48-17.69A37.92,37.92,0,0,0,343.68,292.76Z" transform="translate(0 2.22)"/></svg>