<svg id="Capa_1" data-name="Capa 1" xmlns="http://www.w3.org/2000/svg" viewBox="0 0 399.18 389.12"><defs><style>.cls-1{fill:#8ec047;}</style></defs><path class="cls-1" d="M200.23,393.61c-54,0-108.07-.14-162.1.09-13.37.06-24.07-5.75-34.36-13.14-2.32-1.66-2.91-4.24-2.92-7,0-10.46-.08-20.93,0-31.4.07-6.43,3.05-9.2,9.5-9.22,8,0,16-.15,23.94.08,3.07.09,3.83-.75,3.82-3.83q-.14-93.42-.08-186.84c0-3.8.12-7.53,1.56-11.15,3-7.51,8.49-12,16.43-12.58,14-1.06,28-.39,42-.33a8,8,0,0,1,8.24,8.16c-.13,4.53-3.84,7.82-9,7.83-12.17,0-24.34,0-36.51,0-5.26,0-6.46,1.14-6.75,6.33-.05.92,0,1.84,0,2.75q0,92.64-.1,185.28c0,3.76,1.16,4.37,4.55,4.35,31.14-.12,62.28-.07,93.42-.07,6.8,0,8.44,1,10.64,7.39.8,2.33,1.95,2.86,4.22,2.85q34.55-.12,69.08,0c2.21,0,3.54-.4,4.27-2.75,1.7-5.42,5.42-7.61,11.25-7.57,30.74.17,61.49,0,92.23.16,3.28,0,4-.78,4-4q-.16-93.42-.08-186.84c0-7-.3-7.26-7.35-7.27-11.51,0-23,0-34.54,0-5.38,0-8.39-2.14-9.42-6.44a7.79,7.79,0,0,1,7.5-9.72c13.61-.16,27.23-.38,40.82.1,11,.39,18.54,8.91,18.58,20.3.11,29.3.06,58.61.07,87.92,0,33.89.07,67.78-.1,101.67,0,3.75,1.14,4.43,4.53,4.33,8-.24,16-.11,23.94-.07,5.57,0,8.41,2.88,8.43,8.45,0,10.6,0,21.2,0,31.8a9.49,9.49,0,0,1-4.44,8.54c-11.07,7.72-22.79,12.14-36.77,12C305.94,393.33,253.08,393.61,200.23,393.61Zm.39-15.75c53.36,0,106.71-.11,160.07.13a40.18,40.18,0,0,0,20.76-5.65c2.5-1.43,3.4-3,3.24-5.86a109.79,109.79,0,0,1,0-13.33c.2-3.18-.63-4.17-4-4.16q-61.2.18-122.41,0c-2.7,0-4.3.56-5.16,3.36-1.43,4.66-4.84,6.91-9.73,6.91-28,0-56,0-84,0-5.4,0-7.48-1.56-9.2-6.72-.88-2.64-2.17-3.54-5-3.52-22.36.13-44.72.07-67.08.07-19.23,0-38.45.08-57.68-.08-3,0-3.74.76-3.59,3.66.25,5.08.07,10.19.07,15.29,0,1.28-.21,2.52,1.25,3.38,6.08,3.6,12.11,6.67,19.63,6.64C92.07,377.78,146.35,377.86,200.62,377.86Z" transform="translate(-0.82 -4.67)"/><path class="cls-1" d="M276.84,66.51c-4.23,1.31-7.81,2.43-11.4,3.53-1.41.43-2,.94-1.52,2.74,1.63,6.43,2.82,13,4.39,19.42a25.23,25.23,0,0,1-2,18.24,19.46,19.46,0,0,0-2.14,9.29,116.54,116.54,0,0,1-8.72,43.83c-7.17,17.14-19,30.46-34.72,40.29-15.19,9.48-31.26,8.63-45.61-2.14-21.83-16.41-34.32-38.07-37.35-65.24-.59-5.32-1.66-10.59-1.56-16a5.36,5.36,0,0,0-1.71-3.76c-5.95-7-7.42-15-5.6-23.82,1.27-6.12,2.62-12.22,4.26-18.25.82-3-.26-4-2.89-4.81-8.9-2.89-17.74-6-26.58-9.06a13.21,13.21,0,0,1-8.22-17.67,11.16,11.16,0,0,1,7.32-7Q148,21,193.27,5.51a17.78,17.78,0,0,1,11.87.41c28.37,9.76,56.72,19.58,85.14,29.21,5.34,1.81,10.39,3.46,12,9.77s-1.57,14.24-7.23,15.43c-2.36.5-1.91,2.07-1.92,3.57,0,7.72.06,15.44,0,23.15-.06,4.94-3,8.38-7.21,8.79-5,.49-8.93-3.06-9-8.5C276.75,80.55,276.84,73.75,276.84,66.51ZM246,125l-1.82.63c-14.06,5-28.14,10-42.15,15.18a12.2,12.2,0,0,1-9,0c-13.52-5-27.13-9.7-40.69-14.51-.2.45-.42.69-.39.91.49,3.61,1,7.22,1.53,10.84,3,21.69,13.32,38.91,31.32,51.54,7.46,5.24,15.15,6.5,23.49,2.41C231.29,180.71,248.22,150.76,246,125ZM117.67,48.37a8.74,8.74,0,0,0,1.54,1q38.52,13.15,77,26.31a6.36,6.36,0,0,0,4.49-.16c11.17-3.86,22.37-7.65,33.56-11.47l20-6.87-.13-.6h-5.34c-14.77,0-29.54,0-44.32,0-4.8,0-8.44-3.47-8.53-7.87s3.2-7.68,7.89-8.13c1.16-.11,2.35-.06,3.52-.06h45.5c-13.17-5.45-26.66-9.35-39.52-14.76-10.55-4.45-20-4-30.55,0C161.47,33.92,139.59,40.85,117.67,48.37Zm31.39,27.7c-1.68,7.17-3.5,14.08-4.89,21.09-1,5.27.82,9.8,6.5,11.59,10.88,3.46,21.83,7,32.23,11.66s20.36,5.76,30.55-.09a15.3,15.3,0,0,1,2.57-.9c9.89-3.59,19.81-7.12,29.66-10.83,5.13-1.93,7.38-5.12,6.53-9.35-1.43-7-3.17-14-4.73-20.94-.4-1.81-1-2.1-2.88-1.43-12,4.27-24,8.44-36.09,12.42C206.39,90,206,91,206,92.92c.1,4.58.05,9.16,0,13.73,0,5.83-3.15,9.54-8,9.59s-8.16-3.65-8.24-9.42c-.06-4.7-.07-9.41,0-14.12,0-1.78-.38-2.72-2.31-3.37C174.72,85,162,80.55,149.06,76.07Z" transform="translate(-0.82 -4.67)"/><path class="cls-1" d="M194.35,255.05c-11,4.45-21.44,8.71-31.92,12.92-7.15,2.87-10.67,1.09-12.86-6.27-2.48-8.35-5.06-16.66-7.47-25-.49-1.69-1-2.43-2.88-1.84-13.56,4.25-26.79,9.2-39,16.74-8.59,5.31-13.21,12.83-15,22.66a322.74,322.74,0,0,0-4.71,38.44c-.32,5.34-3.4,8.64-8.15,8.51s-7.89-3.75-7.82-9a220,220,0,0,1,2.08-25.38c.77-5.93,2.12-11.79,3-17.72,2.23-14.37,10.68-24.27,22.56-31.79,12.42-7.85,25.89-13.31,39.94-17.4,2.74-.79,4.71-1.31,3.4-5-1-2.89.34-5.6,2.65-7.71,3.48-3.17,6.91-6.39,10.38-9.57,4.47-4.09,8.33-4.13,12.7.07q16.13,15.51,32.14,31.13c6.72,6.52,6.7,6.53,13.29.16l31.3-30.3c5.47-5.29,9.11-5.31,14.78-.09,3.18,2.92,6.3,5.91,9.53,8.76,2.43,2.14,3.43,4.95,2.42,7.75-1.07,3,.25,3.42,2.51,4A168.62,168.62,0,0,1,307.85,236c14.38,8.49,23.14,20.39,25.53,37.25,1.83,12.8,3.61,25.58,4.28,38.5.29,5.47-2.77,9.23-7.64,9.39-5.35.17-8.23-3-8.54-8.89A266,266,0,0,0,316,270.43c-1.67-7.84-6.18-13.29-12.59-17.62-12.55-8.48-26.58-13.57-40.92-18-2.24-.69-2.53.64-3,2.21q-3.87,13.29-7.82,26.56c-1.66,5.56-6.16,7.82-11.56,5.67-9.64-3.84-19.24-7.81-29-11.79-.9,1.47-.52,2.91-.53,4.25q0,24.15,0,48.28a16.59,16.59,0,0,1-.73,5.8,7.89,7.89,0,0,1-8.93,4.72c-4.07-.72-6.5-3.77-6.51-8.45q0-26.1,0-52.2Zm-10.95-13.5a13.15,13.15,0,0,0-1-1.09l-26.26-25.15c-.78-.74-1.45-1.42-2.65-.48a2.46,2.46,0,0,0-.83,3q4.51,15.48,9,31c.37,1.26.71,1.93,2.39,1.2,5.95-2.56,12-4.88,18-7.27C182.68,242.55,183.4,242.53,183.4,241.55Zm62.24-27.33a14.75,14.75,0,0,0-1.44,1.09Q231,227.87,217.93,240.46c-1,.92-1.73,1.59.3,2.36,5.92,2.28,11.79,4.71,17.63,7.19,1.25.54,1.93.52,2.33-.83l9.54-31.63C248.27,215.78,247.27,214.91,245.64,214.22Z" transform="translate(-0.82 -4.67)"/><path class="cls-1" d="M273.23,290.57c5.36,0,10.72,0,16.08,0,4.92.05,8.45,3.3,8.59,7.76s-3.12,8.13-8.13,8.22q-16.66.3-33.34,0c-5.26-.09-8.33-3.68-8.07-8.56.25-4.57,3.56-7.4,8.78-7.44S267.87,290.57,273.23,290.57Z" transform="translate(-0.82 -4.67)"/><path class="cls-1" d="M292.2,107.15a8.38,8.38,0,0,1-7.74,8.26,8.11,8.11,0,1,1-.34-16.22A8.47,8.47,0,0,1,292.2,107.15Z" transform="translate(-0.82 -4.67)"/></svg>