<svg id="Capa_1" data-name="Capa 1" xmlns="http://www.w3.org/2000/svg" viewBox="0 0 383.2 383.27"><defs><style>.cls-1{fill:#8ec047;}</style></defs><path class="cls-1" d="M8.4,153.52v-98c.25-.23.61-.42.72-.71,5-13.21,14.52-18.62,28-15.61,2,.45,2.15-.47,2.71-1.74,3.81-8.58,10.3-13.62,19.8-14.06,8.26-.38,8.32-.15,13.41-6.65,3.25-4.15,7.83-6.22,12.39-8.36H95.2c5.09,1.9,10,4.13,13.38,8.66,1.74,2.3,2.14,6.28,4.21,7.12,2.28.92,5.58-.87,8.59-.86,25.91.07,51.82,0,77.73.07a13,13,0,0,0,6.38-1.51,127.71,127.71,0,0,1,26.23-10.28c4.83-1.32,9.94-1.3,14.63-3.2h97.27c.12.19.21.52.37.57,13.37,3.78,20,14.57,16.74,27.84-.59,2.41.58,2.54,2.08,3.19a22.17,22.17,0,0,1,13,26.32c-.57,2.2.05,2.8,1.94,3.61,16,6.94,18.76,28,5.16,38.58-2.28,1.78-6.21,2.18-7.14,4.23-1,2.24.86,5.57.85,8.58-.08,24.44.06,48.88-.13,73.31a30.83,30.83,0,0,0,3.35,14.56,109.17,109.17,0,0,1,11.76,50.23c-.24,26.3-.05,52.61-.06,78.92,0,15.71-13.08,26.08-28.36,22.39-1.88-.45-2.42,0-3.13,1.62-4.83,11.11-15,16.21-26.75,13.37-1.77-.43-2.43-.19-3.18,1.54-3.93,9.07-10.82,14.13-20.83,14.17s-17-5-20.88-14.06c-.91-2.13-1.87-2.15-3.47-1.55a17.52,17.52,0,0,1-6.27.69c-20.57,0-41.15,0-61.72,0a17.32,17.32,0,0,0-8.5,2c-19.63,10.42-40.69,14.1-62.72,13a7.2,7.2,0,0,1-7.13-7.5c0-4.64,3.09-7.56,8.29-7.43,15.82.39,31.76-.35,45.86-7.78,12.41-6.53,25-7.88,38.42-7.28,7.59.34,15.21.06,22.82.06H258c-1.5-3.84-1.19-7.47-1.2-11.07,0-20.2-.06-40.4.07-60.6,0-2.68-.73-3.22-3.29-3.21-18.83.12-37.66,0-56.49.13-4.43,0-7.15-1.64-9.2-5.5a45.21,45.21,0,0,0-22.68-20.75c-11.52-5-23.71-3.51-35.73-3.75-1.23,0-1.42.62-1.39,1.63,0,1.25,0,2.49,0,3.74,0,7.3-2.29,9.6-9.57,9.6q-35.35,0-70.7,0c-3.45,0-6.48.68-8.38,3.81-3.13,5.15.7,11.07,7.3,11.15,9.48.1,19,.07,28.43,0a7.51,7.51,0,0,1,6.29,2.64,7.12,7.12,0,0,1,1.05,8c-1.42,3-3.84,4.36-7.18,4.35-14.34,0-28.68,0-43,0-3.36,0-6.19.95-7.92,3.95-3,5.2.91,11,7.56,11,13.84.08,27.68,0,41.52,0,6.54,0,9.77,2.52,9.73,7.58,0,4.89-3.26,7.39-9.54,7.39-8.85,0-17.7,0-26.56,0-3.21,0-5.92,1-7.64,3.78-3.15,5.14.66,11.09,7.26,11.17,9.35.11,18.7,0,28.05,0,5.2,0,8.38,2.81,8.43,7.36,0,4.75-3.14,7.57-8.59,7.59-4.12,0-8.23,0-12.35,0-5.29.05-8.94,3.11-8.95,7.46s3.64,7.45,8.92,7.49,10.73,0,16.09,0c4.86,0,7.9,3,7.9,7.47s-3,7.43-7.9,7.47c-5.86.05-11.72,0-17.58,0a22.23,22.23,0,0,1-21.68-28c.56-2.19,0-2.77-1.92-3.62-8.39-3.81-13.34-10.27-13.76-19.63-.36-8.25-.14-8.31-6.63-13.43-4.15-3.26-6.23-7.82-8.38-12.38V303.9c2.17-4.69,4.34-9.36,8.65-12.62,2.3-1.74,6.27-2.16,7.13-4.21.94-2.26-.87-5.58-.86-8.58.08-25.54,0-51.08.09-76.62a17.32,17.32,0,0,0-2-8.5,119.28,119.28,0,0,1-9.82-25.22C10.25,163.33,10.2,158.23,8.4,153.52ZM271.79,315.94q0,18.13,0,36.28a9.5,9.5,0,0,0,1.33,5.71c1.86,2.66,4.39,4.06,7.7,3.28,3.7-.86,5.89-3.76,5.93-8,.07-9.35,0-18.71,0-28.06a9,9,0,0,1,.53-4,7.68,7.68,0,0,1,8.59-4.43c3.44.7,5.82,3.71,5.83,7.65q0,21.31,0,42.64c0,2,.07,4.05,1.22,5.75,1.89,2.8,4.49,4.3,8,3.37,3.7-1,5.75-3.78,5.76-8.12,0-14.21,0-28.43,0-42.64,0-5.53,2.73-8.71,7.44-8.73s7.51,3.16,7.52,8.66c0,9,0,18,0,26.93a9.61,9.61,0,0,0,1.32,5.72c1.86,2.66,4.39,4.06,7.7,3.29,3.7-.86,5.9-3.76,5.94-8,.07-9.48,0-19,0-28.43,0-5.09,3-8.23,7.62-8.17,4.43.07,7.29,3.19,7.33,8.09,0,4.49-.05,9,0,13.47.09,4.76,3.21,8.23,7.32,8.33s7.46-3.49,7.62-8.44c0-.5,0-1,0-1.49q0-38.34,0-76.69a108.52,108.52,0,0,0-1.08-14.52A99.5,99.5,0,0,0,363.86,211a19.9,19.9,0,0,1-2.34-10c.12-17.58.06-35.16.05-52.75,0-2,.51-4.4-.43-5.8-.79-1.16-3.12.68-4.87.53-1.24-.11-2.49,0-3.74,0-20.7,0-41.4.09-62.1-.09-3.24,0-3.77.92-3.75,3.91.15,18.45-.05,36.91.16,55.36.06,4.9-1.82,7.76-6,10.05-11,6-18.2,15.13-21.9,27.12-2.62,8.52-2,17.25-2.08,25.95,0,6.36,0,6.36,6.33,6.39,6,0,8.62,2.68,8.63,8.67Q271.81,298.16,271.79,315.94Zm44.46-187.86c12.09,0,24.19,0,36.28,0,3.5,0,6.45-1,8.13-4.22,2.71-5.2-1.15-10.67-7.63-10.73-9.48-.09-19-.07-28.43,0a7.52,7.52,0,0,1-6.26-2.72,7.52,7.52,0,0,1,5.94-12.28c14.34,0,28.68,0,43,0,3.48,0,6.47-.88,8.24-4,2.93-5.23-1.05-10.88-7.72-10.91-14.22-.07-28.43,0-42.65,0-5.24,0-8.41-2.76-8.49-7.3-.08-4.76,3.1-7.64,8.52-7.65q13.83,0,27.68,0c3.38,0,6.16-1.13,7.77-4.19,2.73-5.19-1.13-10.69-7.6-10.76-9.47-.09-18.95,0-28.43,0-4.83,0-7.94-3-7.94-7.48s3.11-7.42,7.94-7.47c4.62,0,9.23,0,13.84,0,3.38-.05,6-1.43,7.42-4.67,2.3-5.37-1.63-10.25-8.34-10.26-23.94,0-47.89.29-71.83-.1-19.71-.32-38.23,3.58-55.48,13.2a15.45,15.45,0,0,1-7.84,1.9c-18.7-.08-37.41,0-56.11-.11-3.35,0-4.81.46-3.37,4.11.47,1.2.17,2.72.17,4.09,0,20.82.13,41.64-.1,62.46,0,3.78,1.08,4.34,4.51,4.31,18.2-.19,36.41,0,54.61-.17,4.83,0,7.81,1.58,10.13,5.88,5.88,10.87,15.05,18,26.75,21.86,8.7,2.88,17.72,2.24,26.67,2.27,6.11,0,6.11,0,6.14-6.22s2.62-8.74,8.92-8.74Q298.47,128.07,316.25,128.08ZM128.12,83.56c0-12.1,0-24.19,0-36.29,0-3-.73-5.67-3.32-7.5a6.73,6.73,0,0,0-7.4-.59,7.73,7.73,0,0,0-4.24,7.35q0,13.47,0,26.93c0,6.54-2.53,9.77-7.58,9.73s-7.39-3.26-7.39-9.91c0-13.59,0-27.18,0-40.77,0-3.17-.71-5.93-3.48-7.8a6.68,6.68,0,0,0-7.4-.41c-3,1.67-4.12,4.44-4.11,7.81q0,21.33,0,42.64c0,5.21-2.81,8.38-7.37,8.44-4.74,0-7.58-3.13-7.58-8.59q0-13.65,0-27.3c0-3-.72-5.68-3.3-7.51a6.71,6.71,0,0,0-7.4-.62,7.71,7.71,0,0,0-4.26,7.33c0,9.48,0,19,0,28.43,0,5.13-2.94,8.29-7.54,8.26S38.36,80,38.33,74.8c0-4.61.12-9.23,0-13.84a7.68,7.68,0,0,0-7.59-7.66c-3.86.1-7,3.33-7.3,7.6-.07,1,0,2,0,3,0,23.44.29,46.88-.09,70.32-.32,19.71,3.59,38.23,13.23,55.48a15.41,15.41,0,0,1,1.87,7.84c-.09,18.7,0,37.4-.08,56.11,0,2.81-.15,5,3.77,3.35,1.29-.54,3-.22,4.46-.22,21.07,0,42.14-.06,63.21.06,2.72,0,3.52-.52,3.49-3.4-.15-18.7,0-37.4-.14-56.1,0-4.55,1.58-7.35,5.59-9.53,10.47-5.68,17.58-14.33,21.66-25.58,3.27-9,2.7-18.38,2.74-27.69,0-6.42,0-6.42-6.28-6.45-6,0-8.67-2.67-8.67-8.62Q128.1,101.52,128.12,83.56Zm51.26,44.52c-6.36,0-12.72.06-19.07,0-1.79,0-2.33.48-2.3,2.28.12,5.48.09,11,0,16.45-.21,22-9.52,39.22-27.61,51.65a4.73,4.73,0,0,0-2.36,4.5c.09,11.84.15,23.68,0,35.51,0,2.81.66,3.48,3.45,3.46,7.72-.07,15.48-.72,23.15.31,18.92,2.54,33.76,11.79,44.24,27.82a3.43,3.43,0,0,0,3.32,1.74q18.71-.08,37.39,0c1.79,0,2.34-.48,2.3-2.28-.12-5.23-.05-10.47,0-15.7q0-33.69,27.91-52.59a3.79,3.79,0,0,0,2.06-3.55q-.13-18.69,0-37.38c0-1.78-.46-2.34-2.27-2.3-5.23.11-10.47,0-15.7,0q-33.69,0-52.61-27.92a4.06,4.06,0,0,0-3.92-2.05C191.34,128.15,185.36,128.08,179.38,128.08Z" transform="translate(-8.4 -8.37)"/><path class="cls-1" d="M113.28,389.2a7.48,7.48,0,1,1,7.36-7.62A7.31,7.31,0,0,1,113.28,389.2Z" transform="translate(-8.4 -8.37)"/></svg>