<svg id="Capa_1" data-name="Capa 1" xmlns="http://www.w3.org/2000/svg" viewBox="0 0 396.44 390.31"><defs><style>.cls-1{fill:#8ec047;}</style></defs><path class="cls-1" d="M348.79,308.92V369.2c0,6.42-1.92,8.38-8.18,8.39H280.33c-6.3,0-8.21-2-8.22-8.37q0-60.87.08-121.75c0-3.19-.53-4.41-4-4.16-4.9.35-9.84,0-14.76.11-3,.05-5.18-1.11-6.36-3.84a6.45,6.45,0,0,1,1.42-7.33q28.17-31.29,56.35-62.57c3.71-4.12,7.52-4.14,11.23,0q28.21,31.25,56.34,62.58c2,2.17,2.62,4.61,1.46,7.33-1.26,2.92-3.63,3.95-6.74,3.88-5.06-.11-10.12.14-15.17-.1-2.7-.13-3.23.79-3.21,3.31C348.84,267.4,348.79,288.16,348.79,308.92Zm4.52-78.3c-.86-1.1-1.22-1.61-1.64-2.07-12.9-14.33-25.87-28.61-38.67-43-2-2.26-3-2.35-5.06,0-12.7,14.33-25.58,28.51-38.38,42.77-.53.6-1.62,1-1.1,2.36h7.9c6.66,0,8.53,1.85,8.53,8.45q0,61.07-.07,122.14c0,3,.69,3.71,3.67,3.68,14.77-.18,29.54-.15,44.31,0,2.58,0,3.31-.62,3.28-3.25-.15-12.64-.07-25.28-.07-37.92q0-42.7,0-85.42c0-5.54,2.14-7.63,7.71-7.66Z" transform="translate(-3.56 -6.97)"/><path class="cls-1" d="M310.68,7c42,0,76.43,34.26,76.46,76.11,0,42.76-33.93,77.23-76.12,77.25-43.12,0-77.23-33.94-77.25-76.93C233.75,41.06,268,7,310.68,7Zm-.42,140.57c34.41.36,63.56-28.32,64.06-63,.51-35-28.22-64.45-63.09-64.76a64.23,64.23,0,0,0-64.64,63.61C246.29,118.25,275,147.18,310.26,147.54Z" transform="translate(-3.56 -6.97)"/><path class="cls-1" d="M201.83,396.76q-97,0-194.08.1c-3.73,0-4.26-1.14-4.18-4.41.23-8.52.08-8.53,8.76-8.53Q204,384,395.7,384c3.6,0,4.39.93,4.29,4.38-.25,8.9-.08,8.9-8.89,8.9H201.83Z" transform="translate(-3.56 -6.97)"/><path class="cls-1" d="M80.85,229.64a16.29,16.29,0,0,1,10.51,3.89c1.68,1.39,2.87,1.16,4.55.24q35.52-19.56,71.1-39a3.67,3.67,0,0,0,2.17-3.67c.44-14.67,15.16-23.47,28.13-16.7,2.15,1.12,3.2.64,4.73-.65,11.6-9.78,23.28-19.44,34.82-29.28,2-1.72,3.09-1.65,4.56.49,1.78,2.6,5.56,5.15,5.36,7.44s-4.21,4.3-6.63,6.34q-15.43,12.94-31,25.8a4.45,4.45,0,0,0-1.81,4.41c.93,8.5-2.17,15.19-9.72,19.33-7.37,4-14.61,3.18-21.19-1.94-1.6-1.24-2.46-.58-3.74.12q-35.9,19.68-71.82,39.3A3.35,3.35,0,0,0,98.84,249c-.74,16.1-16.57,24.25-30,15.46a6,6,0,0,0-5.17-.77c-16.53,3.7-33.09,7.27-49.61,11-2,.45-2.86.54-3.16-1.81-.44-3.36-2.78-7.49-1.54-9.78,1.35-2.48,6.22-2,9.55-2.79q19.35-4.47,38.77-8.58c2.23-.47,2.87-1.15,2.93-3.51C60.83,237.64,69.32,229.62,80.85,229.64Zm113.8-37.88a6.24,6.24,0,0,0-5.85-6.69,6.24,6.24,0,1,0,5.85,6.69ZM86,248.89a6.21,6.21,0,0,0-6.23-6.32A6.25,6.25,0,1,0,86,248.89Z" transform="translate(-3.56 -6.97)"/><path class="cls-1" d="M233.77,323.47q0,23,0,45.93c0,6.13-2,8.18-8,8.18h-60.7c-5.88,0-8-2-8-7.79q0-46.52,0-93c0-5.75,2.09-7.79,8-7.79h60.7c6,0,8,2.05,8,8.19Q233.79,300.31,233.77,323.47Zm-63.9-.48c0,12.78.08,25.56-.06,38.33,0,2.67.45,3.6,3.38,3.57,14.77-.17,29.55-.15,44.32,0,2.67,0,3.57-.45,3.56-3.38q-.19-38.13,0-76.27c0-2.66-.45-3.59-3.38-3.56-14.77.17-29.55.2-44.32,0-3.23,0-3.58,1.07-3.55,3.81C170,298,169.87,310.48,169.87,323Z" transform="translate(-3.56 -6.97)"/><path class="cls-1" d="M86.8,307.3h30.35c5.88,0,8,2.05,8,7.79q0,27.35,0,54.71c0,5.73-2.11,7.78-8,7.78H56.45c-5.88,0-8-2-8-7.78q0-27.36,0-54.71c0-5.75,2.1-7.78,8-7.79Zm0,57.51c7.59,0,15.18-.09,22.76.05,2.26,0,2.88-.59,2.86-2.85q-.17-19.56,0-39.13c0-2.25-.6-2.87-2.86-2.85q-22.75.15-45.51,0c-2.26,0-2.88.59-2.86,2.85q.16,19.56,0,39.13c0,2.25.6,2.89,2.86,2.85C71.63,364.72,79.22,364.81,86.8,364.81Z" transform="translate(-3.56 -6.97)"/><path class="cls-1" d="M361.58,83.83c-.05,28.48-22.87,51-51.62,50.94-28.13-.06-50.67-23-50.63-51.5s23-50.84,52.2-50.74C339,32.62,361.62,55.81,361.58,83.83ZM310.71,45.32a38.67,38.67,0,0,0-38.58,38.07C272,104.2,289.4,121.9,310.19,122A38.74,38.74,0,0,0,348.77,83.5C348.79,62.89,331.4,45.44,310.71,45.32Z" transform="translate(-3.56 -6.97)"/><path class="cls-1" d="M310.48,109.21A25.56,25.56,0,1,1,336,83.72,25.31,25.31,0,0,1,310.48,109.21Zm.46-38.28c-6.65-.39-12.84,5.32-13.23,12.22C297.34,89.79,303,96,310,96.38c6.6.4,12.89-5.41,13.24-12.24S317.88,71.33,310.94,70.93Z" transform="translate(-3.56 -6.97)"/></svg>