<svg id="Capa_1" data-name="Capa 1" xmlns="http://www.w3.org/2000/svg" viewBox="0 0 331.66 396.88"><defs><style>.cls-1{fill:#8ec047;}</style></defs><path class="cls-1" d="M123,398.72c-5.72-2.5-11-5.5-13.55-11.68-.6-1.47-1.46-.9-2.39-.62-13.23,4-23.82-2.18-26.48-15.63-.34-1.74-.79-2.16-2.53-2.39-12.19-1.59-19.57-13.73-15.69-25.53.41-1.25,1.55-2.29-.78-3.53-12.88-6.86-15.06-21.47-5-32a10.92,10.92,0,0,1,2.3-1.12c-4.89-1.13-8.45-1.9-12-2.79a20.56,20.56,0,0,1,.8-40.3c2.19-.44,2.68-1.26,2.38-3.34-7.53-51.6,7.38-95.83,44.73-132,23.36-22.63,51.78-35.44,84.2-39.08a55.19,55.19,0,0,1,8.08-.69c3,.12,3.66-1,3.57-3.83-.18-6.1,0-6.3-6.1-6.08a39.62,39.62,0,0,1-41.07-34.25,86.47,86.47,0,0,1-.17-17.4c.24-3.75,2.75-6.95,6.47-7.27C162.63,18,175.41,18,186.4,26.38c1.83,1.4,3.54,3,5.56,4.66,2.42-7.7,6.3-14.27,12.32-19.45a38,38,0,0,1,25.37-9.72c4,0,8-.09,12,0C246,2,249.85,5.31,250,9.57c.2,7.2.82,14.45-1,21.57C244.19,49.46,228.93,61,209,61.28c-6.34.1-6.34.1-6.34,6.52,0,5.68.06,11.37,0,17,0,2,.34,2.9,2.67,3.1,60.33,5.09,103,35.6,128,90.38,10.91,23.88,14.08,49.37,10.67,75.53-.33,2.55-1.37,5.31-.75,7.61.76,2.81,4.36,1.69,6.59,2.74,8.07,3.81,13.29,12.19,12.56,20.86a21,21,0,0,1-15.89,18.3c-3.58.9-7.2,1.66-11.15,2.56,5.44,5.13,8.11,11.13,7.2,18.45a18.19,18.19,0,0,1-10.46,14.78c-1.67.83-2.1,1.36-1.43,3.33,4.18,12.41-2.92,24.05-15.86,25.9-2.2.32-1.88,1.48-2.15,2.79-2.23,10.66-10.18,17-20.52,16.68-2.72-.09-5.62-2.47-7.57-1.49s-2.73,4.43-4.57,6.46c-2.69,2.95-6.32,4.23-9.75,5.89h-8.53c-5.54-1.81-9.77-5.43-13.64-9.64-2.53-2.75-5.38-5.21-7.89-8-1.6-1.75-3.1-2.05-5.41-1.44A144.93,144.93,0,0,1,160,380c-3.5-.91-5.55-.25-8.05,2.19-6.28,6.13-11.44,13.72-20.41,16.56ZM321.07,292.1a16.46,16.46,0,0,0,1.07-1.71,133.53,133.53,0,0,0,9.9-73c-5.7-39.35-25-70.85-57.62-93.62-29.34-20.48-62.08-27.84-97.58-23-2.83.39-2.88,1.21-2.32,3.58,4.11,17.55,6.8,35.36,9.75,53.13,1.2,7.21,2.42,14.49,5.88,21.08,2.9,5.53,6,6.62,11.68,4,4.42-2.06,8.62-4.61,13.07-6.6,12.75-5.7,25.06-3.24,33.71,6.71a102,102,0,0,1,7.26,9.54c6.41,9.36,15.25,15.13,26.05,18.16a74.75,74.75,0,0,0,25.26,2.48c5.15-.34,7.93,1.58,8.13,5.49s-2.07,6.11-7.35,6.51a79.89,79.89,0,0,1-17-.58c-17-2.37-32.09-8.24-42.56-22.87-3.22-4.5-6.5-9-10.74-12.67a14.43,14.43,0,0,0-14-3.36c-4.3,1.15-8,3.44-11.84,5.5s-7.69,4.24-12.13,4.7c-9.81,1-17.16-3.92-21.57-14.57-3.42-8.26-4.86-17-6.26-25.78-2.58-16.13-5.28-32.24-8.76-48.21-.61-2.78-1.42-3.18-4.26-2.35-26.36,7.64-48.23,22.12-66.27,42.68-2.15,2.46-2,3.47.61,5.44,19.93,15.06,30.58,34.37,27.37,60.1-2.23,18,.41,35.46,5.82,52.61,1.42,4.53.27,7.93-3.14,9-3.59,1.15-6.48-.67-8-5.19-6.51-19.35-8.93-39.27-6.32-59.47,2.93-22.7-11-40.17-26.25-49.66C56.46,202.25,53,246,71.89,292.67c2.43-2.65,4.2-4.71,6.11-6.61,10.6-10.56,25-8.67,32.31,4.31.8,1.42,1.32,2,2.84,1.28,11.21-5.09,25.42,3.55,26.31,15.8.09,1.24.41,1.92,2,2.21,13.6,2.54,20.08,13.14,16.18,26.18-.27.88-1.36,1.81.28,2.51,5.23,2.25,8.71,6.24,10.93,11.53,12.45-10.29,21.44-22.54,26.48-37.65,3.12-9.34,4.22-19.07,6-28.66,3.27-17.95,15.11-25,32.44-19.24,11.46,3.83,21,10.89,30.11,18.48,4.69,3.9,8.85,8.45,15.69,8.74,1.91.08,2.74.28,3.74-1.58,6.59-12.19,21.3-14.35,31.28-4.66C316.73,287.44,318.79,289.72,321.07,292.1Zm-93.16,77.11c-7.65-13.21-5.42-22.62,7.16-30.64,1.53-1,1-1.6.62-2.73-4-12.95,2.66-23.75,16.1-26.2,1.2-.22,1.9-.44,2-1.75.33-5.06,2.75-9.16,6.28-12.74a137.36,137.36,0,0,0-21-15.55c-4.23-2.45-8.61-4.54-13.57-5.2-6.21-.83-10.09,1.4-11.65,7.38a102.11,102.11,0,0,0-2.45,12.87c-3.72,29-17.18,52.21-41.24,69.06-2,1.4-3.88,2.86-4.7,5.54A138.87,138.87,0,0,0,227.91,369.21Zm-127.84,6.87a8.87,8.87,0,0,0,5.28-2.32q19.71-19.72,39.41-39.48a7.07,7.07,0,0,0,2-7.45c-1.89-5.93-8.51-7.39-13.24-2.74-8.2,8.05-16.28,16.23-24.41,24.36-4.83,4.84-9.7,9.66-14.49,14.54A7.38,7.38,0,0,0,93,371.57C94.24,374.43,96.73,375.72,100.07,376.08ZM301,368.36a8.3,8.3,0,0,0-2.15-5.24Q279,343.26,259.08,323.43a6.77,6.77,0,0,0-7.09-1.88c-6.34,1.92-7.64,8.58-2.53,13.73q18.69,18.83,37.52,37.54a14.42,14.42,0,0,0,2.37,2A7.18,7.18,0,0,0,297,375C299.69,373.6,300.74,371.22,301,368.36ZM127.74,310.08c.07-3.61-1.55-6.05-4.5-7.28a7.66,7.66,0,0,0-8.85,1.91Q95.09,324,75.81,343.35c-3.34,3.36-3.48,8-.6,11.06,3.15,3.32,7.73,3.36,11.32-.19,12.92-12.82,25.75-25.73,38.62-38.6C126.75,314,127.85,312.19,127.74,310.08ZM320,349a7.07,7.07,0,0,0-2.42-5.55q-19.44-19.45-38.87-38.9a7.64,7.64,0,0,0-6.3-2.33A7.05,7.05,0,0,0,266,307c-1.23,3.37-.26,6.26,2.26,8.77q15.92,15.84,31.78,31.75c2.46,2.46,4.83,5,7.44,7.33a7,7,0,0,0,8.25,1.19A7.13,7.13,0,0,0,320,349ZM212.56,49.14a21.23,21.23,0,0,0,2.88-.19c13.74-3,22.53-13.53,23-27.61.25-8,.25-8-7.69-7.84-12.53.24-22.92,7.62-26.71,19.09-.92,2.8-1.84,5.68-.87,9,3.29-2.9,6.22-5.6,9.3-8.13s6.44-2.24,8.61.26,1.78,6-.92,8.61C217.82,44.52,215.4,46.59,212.56,49.14Zm-22.24,8.51A19.22,19.22,0,0,0,188.26,47C183,35.08,169,28,156.33,30.48c-1.5.3-1.43,1.09-1.45,2.14a54.38,54.38,0,0,0,.69,11.54c2.55,13,15,22.43,26.43,21.69-3.09-3.08-6-5.92-8.87-8.85s-3.13-6.39-.73-8.87c2.66-2.75,5.84-2.6,9.12.58C184.34,51.45,187.05,54.32,190.32,57.65ZM331,321.36a5.76,5.76,0,0,0-1.35-4c-8.17-8.24-16.28-16.55-24.65-24.58-2.81-2.7-7.06-2.08-9.81.64s-3.51,6.86-.76,9.75c8,8.41,16.25,16.58,24.56,24.67,2.22,2.15,5.23,2.06,8,.74S331,324.77,331,321.36Zm-86.85,27.46c-4.37,0-6.76,1.45-8.1,4.47-1.5,3.38-.61,6.3,1.88,8.8,7.37,7.41,14.73,14.83,22.18,22.17,3.66,3.6,8.14,3.68,11.32.44,2.92-3,2.87-7.76-.41-11.1-7.4-7.56-14.93-15-22.41-22.48A7.15,7.15,0,0,0,244.12,348.82ZM62.31,321.27c-.09,3.62,1.3,6.17,4.32,7.41a7.7,7.7,0,0,0,8.89-1.79c7.4-7.38,14.83-14.72,22.14-22.18,3.7-3.78,3.78-8,.5-11.28s-7.59-3.11-11.29.53c-7.35,7.24-14.6,14.58-21.9,21.87C63.35,317.43,62.22,319.23,62.31,321.27ZM119.83,379a7.24,7.24,0,0,0,4.43,7.33c3.2,1.51,6.12.72,8.5-1.62q11.46-11.26,22.72-22.72c3.37-3.43,3.32-7.95.2-11s-7.76-2.91-11.08.35c-7.54,7.41-15,14.94-22.45,22.43A6.83,6.83,0,0,0,119.83,379Zm-60.3-84.85c-2-6.15-4-11.93-5.85-17.76-.5-1.61-1.35-1.86-2.81-1.78a8.83,8.83,0,0,0-8.06,7.58,8.6,8.6,0,0,0,6.11,9.55C52.33,292.68,55.85,293.29,59.53,294.11Zm274,.08c4.16-.93,7.71-1.52,11.13-2.55a8.66,8.66,0,0,0,5.9-9.36,9,9,0,0,0-8-7.71c-1.7-.15-2.6.32-3,2A161.37,161.37,0,0,1,333.48,294.19Z" transform="translate(-30.83 -1.84)"/></svg>