<svg id="Capa_1" data-name="Capa 1" xmlns="http://www.w3.org/2000/svg" viewBox="0 0 395.19 244.18"><defs><style>.cls-1{fill:#8ec047;}</style></defs><path class="cls-1" d="M397.35,186c-2.7,5.13-7.28,7.57-12.58,9.45-8.54,3-16.94,6.49-25.33,9.95-4.71,2-9.05,1.64-13-1.59-1.45-1.21-2.4-.81-3.68,0-6,3.92-12,7.86-18.14,11.61-1.72,1-1.75,2-1.25,3.74,4.8,16.48-6.87,31.12-24,30.08-2.49-.15-3.71-.15-4.38,3.07-2.38,11.36-12.18,18.5-23.94,17.85-2.43-.14-3,.54-3.33,2.75-2.09,13.74-14.62,22.24-28.19,19-2.39-.57-2.65.23-3.18,2.1-4.75,16.69-22.35,23-36.67,13.13-2.74-1.89-5.32-5.34-8.1-5.46s-4.21,4.36-6.56,6.52c-6.08,5.6-13.18,7.38-21,5s-12.6-7.66-14.36-15.57c-.48-2.14-1-3.08-3.58-3.26-10.57-.72-17.4-6.71-20-17.14-.46-1.89-1-2.59-3.12-2.65a20.91,20.91,0,0,1-20.26-17.25c-.37-2-.78-2.6-2.91-2.66C84.29,254.19,74.8,239.23,81,225c.93-2.14.57-3.13-1.24-4.26-8.27-5.16-16.52-10.35-24.7-15.64a3.06,3.06,0,0,0-3.79,0,11.38,11.38,0,0,1-10.36.65c-10.34-4.09-20.72-8.06-31-12.24A11.84,11.84,0,0,1,3.1,177.61q19.61-50,39.38-99.85c2.59-6.55,9.2-9.29,15.84-6.75,10.14,3.87,20.24,7.87,30.33,11.88,5.59,2.23,8.59,6.37,8.36,12.48-.06,1.61.47,2.17,1.85,2.79a56.06,56.06,0,0,0,22.89,5.43c16.24.24,32.67-.14,48.41,5.19,2.09.71,3.08-.63,4.2-1.82,5.07-5.39,10.61-10,18-11.91,6.47-1.67,12.75-.1,19.08.75,4.57.62,9.11,1.45,13.66,2.22,3.77.63,5.87,3.15,5.54,6.58s-2.95,5.49-6.87,5c-6.23-.76-12.45-1.7-18.62-2.85-7.76-1.44-14.22.16-20,6a326.2,326.2,0,0,1-52,43.37c-4,2.63-4,4.46-.35,7.4,7.42,6,15.58,5.7,24,2.68,9.46-3.4,17.31-9.38,24.82-15.84,7.34-6.32,13.84-6.19,20.64.57,12.8,12.71,28,20.09,46.16,20.83a50.87,50.87,0,0,0,11.9-.7c3.58-.71,6.16.31,8.87,2.33,14.42,10.73,28.94,21.33,43.33,32.11,2,1.53,3.39,1.74,5.57.25,6.36-4.33,12.87-8.44,19.41-12.49,1.82-1.14,2.39-2,1.51-4.25q-15.52-39-30.78-78.1c-.92-2.35-1.87-2.39-4-1.56-5.7,2.24-11.47,4.35-17.3,6.24-9.26,3-18.55,1.42-27.81-.16l-7.58-1.27c-4-.68-6.07-3.22-5.57-6.87.44-3.27,2.83-5.17,6.67-4.73,6,.68,11.95,1.56,17.88,2.58a30.34,30.34,0,0,0,14.77-1.46c3.4-1.1,6.76-2.35,10.11-3.61,3.88-1.46,8.15-2,7.64-8.27-.31-3.92,3.12-6.92,6.93-8.45,10.56-4.23,21.13-8.44,31.76-12.48a11.52,11.52,0,0,1,15.06,6.33c5.29,12.88,10.32,25.88,15.35,38.86a5.88,5.88,0,0,1-3.41,7.9c-3.11,1.11-6.18-.38-7.65-4-4.67-11.62-9.31-23.25-13.8-34.94-.92-2.42-1.52-3.32-4.38-2.08-8.44,3.64-17,6.92-25.64,10.18-2.19.83-3,1.42-1.94,4q18.84,47.39,37.37,94.88c.94,2.4,1.84,2.75,4.19,1.77,8.5-3.52,17.07-6.86,25.67-10.14,2.27-.87,3.1-1.56,2-4.28-4.29-10.26-8.22-20.66-12.28-31l-.41-1.08c-1.71-4.55-.78-7.72,2.68-9.1s6.39.16,8.19,4.67c3.12,7.83,6.06,15.74,9.34,23.5,1.69,4,2.56,8.37,5.26,11.92ZM161.89,118.61c-8.92-2.44-17.3-2.28-25.58-2.85-14.22-1-28.87,1-42-6.73-2.31-1.36-2.5.9-3,2.16-10.47,26.51-20.85,53-31.41,79.51-1,2.42-.29,3.36,1.6,4.52,6.44,4,12.81,8,19.21,12.07,3,1.9,6.46,5.72,9,5.18,2.94-.64,5.18-5,7.48-7.88,5.73-7.27,13.24-10.28,22.13-8.3s14.18,7.87,16.06,16.74c.38,1.8,1,2.35,2.91,2.45,10.5.58,18.47,7.22,20.39,17.16.45,2.35,1.13,2.73,3.28,2.76a20.57,20.57,0,0,1,20,17c.4,2.45,1.26,2.69,3.36,2.8,10.7.58,18.19,7.31,20.16,17.76,1.41,7.49-1.59,13.52-6.34,19.1,2.89,2.09,5.58,4.27,8.49,6.09a11.34,11.34,0,0,0,15.67-3c3.65-5.33,2.62-10.68-2.89-15-2.94-2.29-5.94-4.51-8.81-6.88s-3.34-5.86-1.24-8.48,5.18-2.95,8.23-.9c1.27.86,2.45,1.86,3.68,2.79,5.32,4,10.53,8.22,16,12a11.41,11.41,0,0,0,16.07-2.52c3.65-5.13,2.38-11.62-3.1-15.81-4.89-3.75-9.84-7.43-14.66-11.27-3-2.37-3.35-5.79-1.21-8.5,2-2.49,5.35-2.91,8.26-.92,1.49,1,2.85,2.19,4.28,3.28,6,4.58,11.93,9.35,18.16,13.66a11.26,11.26,0,0,0,15.72-2.71c3.7-5.27,2.64-11.32-2.75-15.49-5.58-4.32-11.22-8.58-16.76-13-4-3.17-4-7.93,0-10.19,2.88-1.63,5.35-.6,7.77,1.27,7.81,6.06,15.68,12,23.54,18,3.07,2.35,6.41,3.86,10.37,2.8,4.4-1.17,7.62-3.8,8.55-8.41,1.06-5.28-.81-9.56-5.17-12.77-12.82-9.44-25.68-18.82-38.4-28.4-4.19-3.16-8.14-4.78-13.84-4.45-23.11,1.36-43-6.79-59.6-22.77-3.13-3-4.77-2.69-7.72,0-7.77,7-16.33,12.87-26.21,16.5-13.75,5.05-26.75,4.39-38-6-7.43-6.85-6.59-17.76,1.62-23.62,3-2.17,6.18-4.15,9.2-6.32A291.89,291.89,0,0,0,161.89,118.61ZM84.94,95.13c-.08-1.56-1.44-1.51-2.43-1.91-8.78-3.5-17.59-6.91-26.32-10.54-2.23-.93-2.93-.39-3.75,1.72Q33.78,132,14.93,179.57c-.87,2.17-.56,3.06,1.59,3.88,8.71,3.32,17.41,6.67,26,10.25,2.54,1.06,3.47.5,4.42-1.92Q65.39,144.7,84,97.68C84.32,96.85,84.62,96,84.94,95.13Zm52.72,132.31a7.65,7.65,0,0,0-6.3,2.58c-5.22,6-10.53,11.93-15.44,18.17a8.9,8.9,0,0,0,1.57,12.42,9,9,0,0,0,12.53-.52c5.38-5.85,10.52-11.93,15.51-18.12,2.34-2.91,2.43-6.41.56-9.75A8.78,8.78,0,0,0,137.66,227.44ZM100,243.09c2.57,0,4.85-.71,6.43-2.49,5.41-6.17,10.89-12.3,15.94-18.76,2.91-3.72,1.78-9.09-1.8-12.12s-9-3.23-12.22.27c-5.56,6-10.81,12.34-15.95,18.74-2.28,2.83-2.08,6.29-.39,9.42A9.21,9.21,0,0,0,100,243.09Zm47.17,39.44a8.05,8.05,0,0,0,6.67-3c5-5.71,10-11.38,14.73-17.27a9.16,9.16,0,0,0-1.2-12.79,8.87,8.87,0,0,0-12.78.56c-5.27,5.76-10.33,11.75-15.25,17.82a8.42,8.42,0,0,0-.7,9.75A8.9,8.9,0,0,0,147.17,282.53Zm46.62-6c0-4.4-2-7.44-5.8-8.94s-7.41-.83-10.16,2.23c-4.71,5.24-9.25,10.64-13.79,16-4.18,5-4.08,10.77.13,14.3,4.39,3.7,9.73,3,14.13-2.09s8.65-10.15,13-15.22A8.88,8.88,0,0,0,193.79,276.54Z" transform="translate(-2.16 -70.04)"/></svg>