<?xml version="1.0" standalone="no"?>
<!DOCTYPE svg PUBLIC "-//W3C//DTD SVG 20010904//EN"
 "http://www.w3.org/TR/2001/REC-SVG-20010904/DTD/svg10.dtd">
<svg version="1.0" xmlns="http://www.w3.org/2000/svg"
 width="1000.000000pt" height="300.000000pt" viewBox="0 0 1000.000000 300.000000"
 preserveAspectRatio="xMidYMid meet">

<g transform="translate(0.000000,300.000000) scale(0.100000,-0.100000)"
fill="#000000" stroke="none">
<path d="M4630 2873 c-129 -14 -311 -80 -429 -156 -200 -130 -295 -285 -295
-482 0 -172 51 -282 199 -431 142 -143 251 -213 663 -428 230 -120 322 -180
404 -263 80 -82 111 -147 116 -249 9 -170 -61 -300 -199 -370 -105 -53 -319
-81 -487 -64 -166 17 -347 79 -416 143 -38 35 -100 61 -131 53 -24 -6 -145
-117 -145 -134 0 -4 30 -26 68 -49 146 -89 291 -150 451 -191 97 -24 123 -27
296 -27 173 0 199 3 296 27 221 56 373 131 479 238 231 230 236 586 14 857
-43 52 -172 154 -279 221 -44 27 -201 110 -350 185 -396 199 -514 283 -570
409 -25 55 -27 69 -23 152 3 73 10 101 30 142 72 139 243 213 490 214 204 0
402 -61 520 -161 48 -41 70 -35 153 42 75 71 75 68 -18 131 -131 89 -330 165
-491 187 -73 10 -268 12 -346 4z"/>
<path d="M6835 2869 c-286 -36 -570 -203 -672 -395 -72 -136 -67 -59 -71
-1168 -2 -892 -1 -1001 13 -1022 15 -24 18 -24 176 -24 91 0 169 4 180 10 18
10 19 28 19 593 0 440 3 586 12 595 16 16 1069 17 1099 2 18 -10 19 -28 19
-595 0 -567 1 -585 19 -595 11 -6 90 -10 185 -10 163 0 166 0 181 24 14 21 15
130 12 1012 -3 1093 1 1022 -68 1164 -50 101 -176 221 -304 287 -119 61 -236
99 -365 119 -103 15 -323 17 -435 3z m442 -220 c138 -35 248 -113 301 -214
l27 -50 3 -335 c3 -309 2 -336 -14 -347 -26 -19 -1072 -19 -1098 0 -16 11 -17
38 -14 342 l3 330 28 57 c47 95 165 182 297 218 116 32 339 32 467 -1z"/>
<path d="M3240 2833 c-104 -19 -407 -135 -501 -192 l-34 -21 455 2 455 3 0
105 0 105 -175 1 c-96 1 -186 -1 -200 -3z"/>
<path d="M8966 2824 c-195 -47 -358 -218 -401 -419 -12 -59 -15 -230 -15
-1092 0 -915 2 -1023 16 -1037 24 -24 345 -24 365 1 12 13 13 116 10 603 l-3
588 22 22 22 22 423 -3 c344 -3 425 -1 439 10 12 10 16 32 16 97 0 124 36 116
-471 113 -405 -2 -423 -1 -436 17 -12 16 -14 74 -10 349 4 374 8 397 77 459
70 63 94 66 557 66 l413 0 0 110 0 110 -482 -1 c-380 0 -495 -4 -542 -15z"/>
<path d="M2009 2716 c-137 -112 -354 -332 -468 -475 -236 -297 -419 -634 -541
-999 -68 -205 -68 -208 -26 -323 43 -118 80 -254 116 -424 17 -77 29 -116 29
-95 1 19 14 93 30 165 78 348 221 709 386 975 141 226 364 484 539 625 l75 60
0 293 c1 233 -2 292 -12 292 -7 0 -65 -42 -128 -94z"/>
<path d="M2435 2455 c-49 -36 -130 -100 -180 -143 l-90 -78 0 -984 0 -985 719
-3 c569 -2 721 0 728 10 4 7 8 54 8 105 0 85 -2 93 -22 104 -16 8 -154 11
-518 8 -411 -3 -500 -2 -513 10 -15 12 -17 59 -17 496 0 401 2 485 14 494 10
9 129 12 435 11 277 0 428 3 441 10 18 9 20 21 20 103 0 59 -4 97 -12 105 -9
9 -121 12 -443 12 -322 0 -434 3 -443 12 -9 9 -12 110 -12 395 0 300 -3 383
-12 383 -7 0 -53 -30 -103 -65z"/>
</g>
</svg>
