<svg id="Capa_1" data-name="Capa 1" xmlns="http://www.w3.org/2000/svg" viewBox="0 0 295.18 224.9"><defs><style>.cls-1{fill:#1d3556;}</style></defs><path class="cls-1" d="M1.34,100.49c2.94-6.07,8.39-9,14.17-11.71q56.84-27,113.58-54.18c14.22-6.79,28.41-6.8,42.6.12l113.6,55.46a25.34,25.34,0,0,1,7.17,4.72c5.83,5.95,5.34,13.86-1.21,19a35.4,35.4,0,0,1-6.42,3.79C272.9,123.57,261,129.44,249,135.23a3.27,3.27,0,0,0-2.16,3.46c.08,21.71,0,43.43.11,65.14a11.09,11.09,0,0,1-2.91,7.81,119.87,119.87,0,0,1-67.86,39.82c-26.36,5.47-52.21,3.43-77.23-6.81a119.21,119.21,0,0,1-46.51-33.84,8.7,8.7,0,0,1-2.16-6c.06-21.91,0-43.81.1-65.72a4.18,4.18,0,0,0-2.86-4.47c-4.93-2.26-9.77-4.71-15.07-7.3v2.48c0,14.42,0,28.83,0,43.24a3.4,3.4,0,0,0,2.1,3.51,16.29,16.29,0,0,1,.12,28.53c-1.6.92-1.57,1.62-1.1,3.11,4.86,15.27,9.64,30.57,14.5,46.06H5.36c2-6.47,4-12.88,6-19.29,2.78-8.83,5.55-17.67,8.4-26.48.54-1.64.52-2.52-1.24-3.59-11.11-6.72-10.74-22.18.64-28.53A3,3,0,0,0,21,173.23q-.07-24.78,0-49.58c0-1.71-.5-2.62-2.08-3.13a26.57,26.57,0,0,1-2.59-1.23c-6.19-2.71-12-5.88-15-12.46Zm44.84,21c1.24.66,2,1.09,2.72,1.45,28.51,13.67,57,27.4,85.55,41a35,35,0,0,0,31.57-.09q39-18.9,77.95-38,18.42-9,36.77-18.11c1.85-.91,4.57-1.67,4.59-3.84s-2.71-2.64-4.49-3.51Q223.69,72.42,166.52,44.51c-10.76-5.25-21.6-5.2-32.37,0q-42.78,20.48-85.53,41-16.78,8.06-33.55,16.17c-1.12.53-2.58,1.14-2.58,2.45s1.4,2,2.51,2.51c3.42,1.68,6.93,3.21,10.32,5a8.62,8.62,0,0,0,5.23,1q15.56-1.86,31.12-3.68l37.12-4.4q15.84-1.87,31.69-3.75,8.85-1,17.71-2a5.05,5.05,0,0,1,5.3,2.66c2.09,3.6-.15,7.37-5.07,8-8.83,1.18-17.7,2.1-26.55,3.13q-18.28,2.11-36.56,4.24C72.46,118.33,59.62,119.87,46.18,121.47Zm15.64,19.86c0,.45-.13.9-.13,1.35q0,30.1,0,60.22a4.91,4.91,0,0,0,1.54,3.54,109.38,109.38,0,0,0,31.47,24.29c24.79,12.66,50.92,15.86,78.12,10.49a110.06,110.06,0,0,0,61.78-35.06,5.23,5.23,0,0,0,1.46-3.81c-.05-19.59,0-39.19-.05-58.78,0-.68.36-1.5-.44-2.18l-1,.49q-31.91,15.6-63.83,31.2c-13.7,6.68-27.52,6.59-41.21.14-21.6-10.18-43.1-20.55-64.65-30.83C63.93,142,63.1,141.22,61.82,141.33Z" transform="translate(-1.34 -29.52)"/></svg>