<svg id="Capa_1" data-name="Capa 1" xmlns="http://www.w3.org/2000/svg" viewBox="0 0 400 400"><defs><style>.cls-1{fill:#1d3556;}</style></defs><path class="cls-1" d="M400,200.82c0,110.46-89.54,200-200,200S0,311.28,0,200.82,89.54.82,200,.82,400,90.36,400,200.82ZM191.62,65.21c-2.23,1.22-4.77.93-7.15,1.45C168,70.29,153.86,78.05,142.79,90.8c-18.85,21.72-24.54,46.76-15.91,74.1,11.54,36.57,47,58.13,84.86,52.19,25.66-4,44.58-18.2,56.24-41.22,11.53-22.78,11.33-46.12-.27-68.89-10.1-19.82-26.2-32.72-47.62-39-4.27-1.25-8.72-1.43-12.93-2.77Zm32.31,292.72a150.24,150.24,0,0,0,53.4-19.52,153.74,153.74,0,0,0,49.61-47.84c6.37-9.7,6.84-7.54.21-18.94C312.29,246.11,290.33,230,261,224.44a19.51,19.51,0,0,0-15.88,3.46c-13.56,9.46-28.83,13.9-45.29,13.92a79,79,0,0,1-45.59-13.93c-3.42-2.33-6.81-4.78-11.25-4.17a89,89,0,0,0-10.13,1.9c-29.7,7.65-51,25.51-64.22,53.11a7.86,7.86,0,0,0,.63,7.91,151.82,151.82,0,0,0,39.47,43.25c26.82,20,57.18,29.74,94.17,30C207.59,360.08,215.82,359.29,223.93,357.93Z" transform="translate(0 -0.82)"/></svg>