<svg id="Capa_1" data-name="Capa 1" xmlns="http://www.w3.org/2000/svg" viewBox="0 0 49.84 49.85"><defs><style>.cls-1{fill:#fff;}</style></defs><path class="cls-1" d="M26.7,50H22.91c-.06-.16-.19-.09-.29-.1a24.49,24.49,0,0,1-13-5.22,24.63,24.63,0,0,1-9.31-16A6.22,6.22,0,0,0,0,27.08V23a3.86,3.86,0,0,0,.2-1.26A24.41,24.41,0,0,1,9.47,5.57,24,24,0,0,1,29.79.62,24.17,24.17,0,0,1,46.34,12.31,24.08,24.08,0,0,1,49.55,29a24.11,24.11,0,0,1-6,12.58,24.57,24.57,0,0,1-14.92,8.11A14.39,14.39,0,0,0,26.7,50Zm.39-16.8c0-2.24,0-4.48,0-6.72,0-.46.14-.54.56-.53,1.05,0,2.11,0,3.16,0,.26,0,.36,0,.39-.33.13-1.47.29-2.93.46-4.4,0-.3,0-.39-.35-.38-1.26,0-2.53,0-3.79,0-.35,0-.43-.1-.42-.43,0-.85,0-1.69,0-2.53a1.25,1.25,0,0,1,1.42-1.44c.91,0,1.82,0,2.73,0,.27,0,.35-.08.35-.35q0-2.14,0-4.29c0-.24-.06-.34-.33-.34-1.49,0-3-.06-4.47,0-3.39.14-5.32,2-5.67,5.39a30.55,30.55,0,0,0,0,3.45c0,.45-.13.54-.54.52-.66,0-1.33,0-2,0-.26,0-.33.06-.33.32q0,2.24,0,4.47c0,.27.08.33.33.32.68,0,1.36,0,2,0,.42,0,.49.11.49.5,0,4.5,0,9,0,13.48,0,.38.1.49.48.48,1.7,0,3.41,0,5.11,0,.38,0,.44-.11.44-.46Q27.09,36.53,27.09,33.16Z" transform="translate(-0.04 -0.11)"/></svg>