<svg id="Capa_1" data-name="Capa 1" xmlns="http://www.w3.org/2000/svg" viewBox="0 0 49.73 49.76"><defs><style>.cls-1{fill:#fff;}</style></defs><path class="cls-1" d="M27,49.85H23.08c0-.16-.19-.1-.29-.11a25.93,25.93,0,0,1-3.49-.58A24.92,24.92,0,0,1,.51,28.6,6.15,6.15,0,0,0,.25,27V22.93c.15-.05.09-.19.1-.29.11-.76.18-1.54.34-2.3A24.4,24.4,0,0,1,11.09,4.46,24.19,24.19,0,0,1,29.75.54,23.83,23.83,0,0,1,43.33,8.06a24.3,24.3,0,0,1,6.43,20.25,23.84,23.84,0,0,1-6.09,13.22,24.52,24.52,0,0,1-14.92,8A8.9,8.9,0,0,0,27,49.85ZM39.4,25c0-2.06,0-4.11-.1-6.17A9,9,0,0,0,38,14.38a7.8,7.8,0,0,0-6.68-3.58c-4.16-.19-8.32-.17-12.48,0a8.64,8.64,0,0,0-4.54,1.38A7.81,7.81,0,0,0,11,18.69c-.2,4.19-.19,8.38,0,12.57a8.47,8.47,0,0,0,1.38,4.49,7.81,7.81,0,0,0,6.54,3.39c4.16.2,8.32.19,12.48,0a7.83,7.83,0,0,0,7.95-8C39.43,29.1,39.4,27.06,39.4,25Z" transform="translate(-0.25 -0.09)"/><path class="cls-1" d="M13.48,25.09c.06-2.17,0-4.33.15-6.49a5.13,5.13,0,0,1,5.13-5.11,115.41,115.41,0,0,1,13,0,5.06,5.06,0,0,1,5.11,5.11,118,118,0,0,1,0,13,5.07,5.07,0,0,1-5.12,5.1,113.28,113.28,0,0,1-13,0,5.12,5.12,0,0,1-5.11-5.11C13.45,29.45,13.54,27.27,13.48,25.09Zm19.16,0a7.38,7.38,0,1,0-7.39,7.37A7.36,7.36,0,0,0,32.64,25.12Zm.27-5.95a1.72,1.72,0,0,0,0-3.44,1.72,1.72,0,0,0,0,3.44Z" transform="translate(-0.25 -0.09)"/><path class="cls-1" d="M25.24,20.33a4.79,4.79,0,1,1-4.76,4.8A4.79,4.79,0,0,1,25.24,20.33Z" transform="translate(-0.25 -0.09)"/></svg>