<svg id="Capa_1" data-name="Capa 1" xmlns="http://www.w3.org/2000/svg" viewBox="0 0 295.27 295.28"><defs><style>.cls-1{fill:#1d3556;}</style></defs><path class="cls-1" d="M270.29,298c-9.12-2.63-14.79-9.8-21.11-16.1q-32.84-32.78-65.59-65.66c-1.48-1.49-2.47-1.66-4.24-.54a112.14,112.14,0,0,1-67.5,17.61,112.85,112.85,0,0,1-60.37-21.15,113.93,113.93,0,0,1-39.23-48.26A112.66,112.66,0,0,1,3.16,108a115.65,115.65,0,0,1,61.7-92.22A115.23,115.23,0,0,1,218.44,61.4,115.05,115.05,0,0,1,219.51,173a60.74,60.74,0,0,1-3.84,6.39c-1.2,1.71-1,2.75.53,4.24,24,23.86,47.81,47.84,71.83,71.65,4.56,4.53,8.19,9.42,9.94,15.63v8.65c-1,.43-.85,1.46-1.06,2.19a23,23,0,0,1-9,12.28c-2.86,2.11-6.3,2.83-9.56,4ZM121.55,221.68a103.69,103.69,0,0,0,99.67-114C216,54.38,169,9.34,107.86,15,54.8,19.82,9.17,66.88,15,128.35,20.19,183.21,67.34,223.37,121.55,221.68ZM286.4,275a12.51,12.51,0,0,0-3.86-8.7Q257.9,241.69,233.28,217c-1.22-1.23-1.82-1.07-2.85.12A110.08,110.08,0,0,1,217.62,230c-1.77,1.47-1.69,2.27-.08,3.87q23.94,23.73,47.72,47.61a26.67,26.67,0,0,0,2.54,2.33,10.73,10.73,0,0,0,11.85,1.49C283.94,283.27,286,279.68,286.4,275Zm-79.53-84.23a4.94,4.94,0,0,1-.57,1.41,109.31,109.31,0,0,1-14,14c-1.28,1.06-.66,1.61.16,2.43q6.85,6.79,13.63,13.66c.88.9,1.44,1.17,2.53.19a192.1,192.1,0,0,0,13.83-13.84c.87-1,1-1.53,0-2.54-4.68-4.55-9.26-9.2-13.88-13.8C208.18,192,207.82,191.67,206.87,190.79Z" transform="translate(-2.69 -2.68)"/><path class="cls-1" d="M118,25.81A92.26,92.26,0,1,1,25.82,118,92.37,92.37,0,0,1,118,25.81Zm-.3,173c43.77-.27,80.64-34.24,81-80.37.32-43.51-33.86-80.41-80-80.9C75.27,37,38,71.09,37.51,117.59,37.09,161.15,71.36,197.79,117.66,198.77Z" transform="translate(-2.69 -2.68)"/><path class="cls-1" d="M120.65,48.89A69.37,69.37,0,0,1,182.5,92.64c1.41,3.53,0,6.88-3.13,8.12s-6.13-.09-7.73-3.91a58.3,58.3,0,0,0-52.13-36.38c-4.86-.24-7.28-2.24-7.2-6s2.7-5.66,7.47-5.63Z" transform="translate(-2.69 -2.68)"/><path class="cls-1" d="M187.25,118a5.76,5.76,0,1,1-5.85-5.73A5.73,5.73,0,0,1,187.25,118Z" transform="translate(-2.69 -2.68)"/></svg>