<svg id="Capa_1" data-name="Capa 1" xmlns="http://www.w3.org/2000/svg" viewBox="0 0 49.38 49.37"><defs><style>.cls-1{fill:#fff;}</style></defs><path class="cls-1" d="M49.79,22.94V26.8a15.26,15.26,0,0,0-.31,2,24.27,24.27,0,0,1-9.56,15.78,24,24,0,0,1-18.09,4.74A23.11,23.11,0,0,1,9,43.51C1.74,37-1,28.82,1.1,19.29A24.39,24.39,0,0,1,21.51.45,6,6,0,0,0,23.08.19h3.86c0,.1.11.09.19.09a22.31,22.31,0,0,1,2.81.38A24.73,24.73,0,0,1,49.52,21.27,7.19,7.19,0,0,0,49.79,22.94Zm-22.52-1c0-.8,0-1.49,0-2.17,0-.25-.07-.34-.33-.34-1.78,0-3.56,0-5.35,0-.28,0-.34.1-.34.36.08,5.79,0,11.57,0,17.36,0,.31.08.39.39.39,1.74,0,3.47,0,5.21,0,.33,0,.43-.07.42-.41,0-1.53,0-3.06,0-4.58,0-1.9,0-3.79,0-5.69a3.21,3.21,0,0,1,.9-2.07c1.29-1.47,4.26-1.52,5.07.88a6.77,6.77,0,0,1,.32,2.28c0,3,0,6.07,0,9.11,0,.41.11.49.5.48,1.71,0,3.41,0,5.11,0,.34,0,.42-.09.42-.42,0-3.29,0-6.59,0-9.88a12.39,12.39,0,0,0-.13-2,7.45,7.45,0,0,0-2.36-4.71c-2.23-2-7.33-2.4-9.62,1.19Zm-9.33,6.58c0-2.87,0-5.75,0-8.62,0-.35-.06-.48-.45-.47-1.71,0-3.43,0-5.15,0-.31,0-.45,0-.45.41q0,8.65,0,17.3c0,.36.13.4.44.4,1.72,0,3.44,0,5.16,0,.36,0,.45-.08.45-.44C17.93,34.21,17.94,31.35,17.94,28.49ZM11.57,13.83A3.11,3.11,0,0,0,14.93,17,3.13,3.13,0,1,0,15,10.7,3.14,3.14,0,0,0,11.57,13.83Z" transform="translate(-0.41 -0.19)"/></svg>