<svg id="Capa_1" data-name="Capa 1" xmlns="http://www.w3.org/2000/svg" viewBox="0 0 308.98 48.81"><defs><style>.cls-1{fill:#1c3556;}.cls-2{fill:#8cc046;}.cls-3{fill:#268bcc;}.cls-4{fill:#1857a1;}</style></defs><path class="cls-1" d="M57.55,37.45a.63.63,0,0,1-.63-.63V8.39a.63.63,0,0,1,.63-.63H72.34a.63.63,0,0,1,.63.63.64.64,0,0,1-.63.64H58.18V36.85A.63.63,0,0,1,57.55,37.45Z" transform="translate(0.39 0.34)"/><path class="cls-1" d="M71.77,22.12H57.55a.64.64,0,0,1,0-1.28H71.77a.64.64,0,0,1,.56.72A.66.66,0,0,1,71.77,22.12Z" transform="translate(0.39 0.34)"/><path class="cls-1" d="M84.28,37.25A9.19,9.19,0,0,1,79,35.33a10.84,10.84,0,0,1-4.42-8.82v-13a.64.64,0,0,1,.64-.63.63.63,0,0,1,.63.63h0v13a9.53,9.53,0,0,0,3.91,7.78c3.06,2.18,5.93,2.25,8.51.2a9.38,9.38,0,0,0,3.39-7.38V13.5a.64.64,0,0,1,1.27,0h0V27.13a10.66,10.66,0,0,1-3.84,8.37A7.57,7.57,0,0,1,84.28,37.25Z" transform="translate(0.39 0.34)"/><path class="cls-1" d="M111.57,36.88a.58.58,0,0,1-.52-.27L96.28,15.52V36.27a.63.63,0,0,1-1.26,0V13.5a.63.63,0,0,1,.63-.63.64.64,0,0,1,.52.28l14.77,21.1V13.5a.63.63,0,0,1,.69-.57.62.62,0,0,1,.57.57h0V36.27a.65.65,0,0,1-.43.61Z" transform="translate(0.39 0.34)"/><path class="cls-1" d="M125.25,36.88a12,12,0,1,1,11-16.78.65.65,0,0,1-.47.78.64.64,0,0,1-.7-.29,10.75,10.75,0,1,0,0,8.63.65.65,0,0,1,.83-.33h0a.64.64,0,0,1,.32.83A12,12,0,0,1,125.25,36.88Z" transform="translate(0.39 0.34)"/><path class="cls-1" d="M159.08,36.94A15.16,15.16,0,1,1,173,15.77a.64.64,0,0,1-.46.78.63.63,0,0,1-.7-.29,13.9,13.9,0,1,0,0,11.15.64.64,0,0,1,1.16.52h0A15.2,15.2,0,0,1,159.08,36.94Z" transform="translate(0.39 0.34)"/><path class="cls-1" d="M140,38a.66.66,0,0,1-.64-.63V13.5a.65.65,0,0,1,1.28,0V37.4A.64.64,0,0,1,140,38Z" transform="translate(0.39 0.34)"/><path class="cls-1" d="M185.77,37.07a12.3,12.3,0,1,1,12.29-12.3h0A12.3,12.3,0,0,1,185.77,37.07Zm0-23.32a11,11,0,1,0,11,11h0a11,11,0,0,0-11-11Z" transform="translate(0.39 0.34)"/><path class="cls-1" d="M223.78,37.07a12.3,12.3,0,1,1,12.28-12.31h0A12.3,12.3,0,0,1,223.78,37.07Zm0-23.32a11,11,0,1,0,11,11.05h0a11,11,0,0,0-11-11Z" transform="translate(0.39 0.34)"/><path class="cls-1" d="M214,37H200.84a.63.63,0,0,1-.63-.63V13.41a.63.63,0,0,1,.56-.72.64.64,0,0,1,.71.56h0a.43.43,0,0,1,0,.16V35.72H214A.63.63,0,0,1,214,37Z" transform="translate(0.39 0.34)"/><path class="cls-1" d="M238.18,37.84a.64.64,0,0,1-.63-.64h0V13.42a.64.64,0,0,1,.63-.64.66.66,0,0,1,.53.28l9.22,13.8,9-13.53a.63.63,0,0,1,.87-.18h0a.6.6,0,0,1,.28.52V37.07a.63.63,0,0,1-1.26,0V15.81l-8.3,12.55a.69.69,0,0,1-.53.28.67.67,0,0,1-.52-.28L238.78,15.5V37.2A.64.64,0,0,1,238.18,37.84Z" transform="translate(0.39 0.34)"/><path class="cls-1" d="M270.94,37.07h-9.83a.64.64,0,0,1-.63-.64V13.68a.64.64,0,0,1,.63-.64h9.25a4.33,4.33,0,0,1,2.44.75c1.92,1.33,3,2.88,3.07,4.72.15,2.48-1.53,4.62-2.44,5.58,2.44,2,3.73,4.06,3.83,6.15a7.21,7.21,0,0,1-2.78,5.55A5.32,5.32,0,0,1,270.94,37.07Zm-9.22-1.28h9.2a4.1,4.1,0,0,0,2.7-1A6.06,6.06,0,0,0,276,30.27c-.08-1.87-1.39-3.78-3.91-5.7a.67.67,0,0,1-.25-.49.65.65,0,0,1,.21-.49s2.7-2.44,2.54-5.1a5.05,5.05,0,0,0-2.5-3.69,2.89,2.89,0,0,0-1.7-.52h-8.65Z" transform="translate(0.39 0.34)"/><path class="cls-1" d="M261.19,24.8a.64.64,0,0,1-.64-.63.64.64,0,0,1,.64-.64h0l11.31,0a.61.61,0,0,1,.63.59v0a.63.63,0,0,1-.63.63h0l-11.3.05Z" transform="translate(0.39 0.34)"/><path class="cls-1" d="M283.07,37.82a.65.65,0,0,1-.63-.65V13.37a.64.64,0,1,1,1.27,0h0v23.8a.65.65,0,0,1-.63.65h0Z" transform="translate(0.39 0.34)"/><path class="cls-1" d="M288.76,37.53h-.23a.64.64,0,0,1-.36-.81h0L297.4,13.1a.63.63,0,0,1,.59-.39.61.61,0,0,1,.6.38l9.73,23.43a.64.64,0,0,1-1.15.54V37L298,15.06l-8.63,22.06A.65.65,0,0,1,288.76,37.53Z" transform="translate(0.39 0.34)"/><path class="cls-1" d="M304.05,29H292.18a.65.65,0,0,1-.57-.7h0a.62.62,0,0,1,.56-.56h11.87a.64.64,0,0,1,.56.72h0A.65.65,0,0,1,304.05,29Z" transform="translate(0.39 0.34)"/><path class="cls-2" d="M307.74,43.67H57.55a.85.85,0,0,1,0-1.69H307.74a.85.85,0,0,1,0,1.69Z" transform="translate(0.39 0.34)"/><path class="cls-3" d="M20.22,29.57a115,115,0,0,0-5.6,18.91H43.05a6.58,6.58,0,0,0,6.55-6.35l.61-18.94A124.14,124.14,0,0,0,20.22,29.57Z" transform="translate(0.39 0.34)"/><path class="cls-4" d="M14.13,32a42,42,0,0,0-6,3.18A31.82,31.82,0,0,1,14.46,30,101.61,101.61,0,0,1,24.55.15L6.33-.34A6.57,6.57,0,0,0-.39,6.07v.62L2.05,42.33a6.57,6.57,0,0,0,6.52,6.15h4.61A86.31,86.31,0,0,1,14.13,32Z" transform="translate(0.39 0.34)"/><path class="cls-3" d="M44.34.71,35.73.47A128.54,128.54,0,0,0,21.67,25.94c12.56-6.14,27.83-10,28.77-10.29l.27-8.15A6.57,6.57,0,0,0,44.38.71h0Z" transform="translate(0.39 0.34)"/></svg>