<svg id="Capa_1" data-name="Capa 1" xmlns="http://www.w3.org/2000/svg" viewBox="0 0 103.82 16.41"><defs><style>.cls-1{fill:#fff;}</style></defs><path class="cls-1" d="M21.71,14a.21.21,0,0,1-.21-.21h0V4.22A.22.22,0,0,1,21.71,4h5a.22.22,0,0,1,0,.43H21.93v9.35A.22.22,0,0,1,21.71,14Z" transform="translate(-2.24 -1.29)"/><path class="cls-1" d="M26.49,8.84H21.71a.22.22,0,0,1-.21-.22.21.21,0,0,1,.21-.21h4.78a.21.21,0,0,1,.19.24h0A.22.22,0,0,1,26.49,8.84Z" transform="translate(-2.24 -1.29)"/><path class="cls-1" d="M30.7,13.92a3.09,3.09,0,0,1-1.78-.64,3.65,3.65,0,0,1-1.48-3V5.94a.22.22,0,0,1,.43,0h0v4.37a3.21,3.21,0,0,0,1.31,2.62A2.19,2.19,0,0,0,32,13a3.14,3.14,0,0,0,1.14-2.48V5.94a.2.2,0,0,1,.24-.18.21.21,0,0,1,.19.18h0v4.58a3.63,3.63,0,0,1-1.29,2.82A2.59,2.59,0,0,1,30.7,13.92Z" transform="translate(-2.24 -1.29)"/><path class="cls-1" d="M39.87,13.8a.19.19,0,0,1-.17-.09l-5-7.09v7a.21.21,0,1,1-.42,0V5.94a.21.21,0,0,1,.21-.21.21.21,0,0,1,.17.09l5,7.1v-7a.21.21,0,0,1,.23-.19h0a.21.21,0,0,1,.19.19h0v7.65a.22.22,0,0,1-.14.21Z" transform="translate(-2.24 -1.29)"/><path class="cls-1" d="M44.47,13.8a4,4,0,1,1,3.7-5.64.23.23,0,0,1-.16.26.23.23,0,0,1-.24-.1,3.6,3.6,0,1,0,0,2.91.22.22,0,0,1,.28-.12h0a.22.22,0,0,1,.11.28A4,4,0,0,1,44.47,13.8Z" transform="translate(-2.24 -1.29)"/><path class="cls-1" d="M55.84,13.82A5.1,5.1,0,1,1,60.52,6.7a.22.22,0,0,1-.16.27h0a.21.21,0,0,1-.23-.1,4.66,4.66,0,1,0,0,3.75.21.21,0,0,1,.29-.08.21.21,0,0,1,.1.25h0A5.12,5.12,0,0,1,55.84,13.82Z" transform="translate(-2.24 -1.29)"/><path class="cls-1" d="M49.43,14.18a.24.24,0,0,1-.22-.22v-8a.22.22,0,0,1,.43,0v8A.22.22,0,0,1,49.43,14.18Z" transform="translate(-2.24 -1.29)"/><path class="cls-1" d="M64.81,13.86a4.13,4.13,0,1,1,4.13-4.13h0A4.13,4.13,0,0,1,64.81,13.86Zm0-7.83a3.7,3.7,0,1,0,3.7,3.69h0A3.7,3.7,0,0,0,64.81,6Z" transform="translate(-2.24 -1.29)"/><path class="cls-1" d="M77.59,13.86a4.13,4.13,0,1,1,4.12-4.14h0A4.12,4.12,0,0,1,77.59,13.86Zm0-7.83a3.7,3.7,0,1,0,3.69,3.71h0A3.7,3.7,0,0,0,77.59,6Z" transform="translate(-2.24 -1.29)"/><path class="cls-1" d="M74.3,13.84H69.87a.21.21,0,0,1-.21-.21h0V5.91a.23.23,0,0,1,.18-.24h0a.22.22,0,0,1,.24.19h0v7.55H74.3a.21.21,0,0,1,.21.21A.21.21,0,0,1,74.3,13.84Z" transform="translate(-2.24 -1.29)"/><path class="cls-1" d="M82.43,14.12a.22.22,0,0,1-.22-.21h0v-8a.22.22,0,0,1,.22-.21.22.22,0,0,1,.17.09l3.1,4.64,3-4.55A.22.22,0,0,1,89,5.82h0a.21.21,0,0,1,.09.18v7.86a.21.21,0,1,1-.42,0V6.72L85.9,10.94a.24.24,0,0,1-.18.09.22.22,0,0,1-.17-.09L82.63,6.61v7.3A.21.21,0,0,1,82.43,14.12Z" transform="translate(-2.24 -1.29)"/><path class="cls-1" d="M93.44,13.86H90.13a.21.21,0,0,1-.21-.21V6a.21.21,0,0,1,.21-.21h3.11a1.42,1.42,0,0,1,.82.25,2,2,0,0,1,1,1.59,2.67,2.67,0,0,1-.82,1.87,3,3,0,0,1,1.29,2.07,2.42,2.42,0,0,1-.93,1.86A1.76,1.76,0,0,1,93.44,13.86Zm-3.1-.43h3.09a1.4,1.4,0,0,0,.91-.33,2.07,2.07,0,0,0,.8-1.52,2.79,2.79,0,0,0-1.32-1.92.21.21,0,0,1-.08-.16.23.23,0,0,1,.07-.17,2.56,2.56,0,0,0,.85-1.71,1.68,1.68,0,0,0-.84-1.24,1,1,0,0,0-.57-.18H90.34Z" transform="translate(-2.24 -1.29)"/><path class="cls-1" d="M90.16,9.74a.22.22,0,1,1,0-.43H94a.21.21,0,0,1,.21.2h0a.21.21,0,0,1-.21.21h0l-3.8,0Z" transform="translate(-2.24 -1.29)"/><path class="cls-1" d="M97.51,14.12a.22.22,0,0,1-.21-.22v-8a.22.22,0,0,1,.43-.06V5.9h0v8a.23.23,0,0,1-.21.22h0Z" transform="translate(-2.24 -1.29)"/><path class="cls-1" d="M99.43,14h-.08a.21.21,0,0,1-.12-.27h0l3.1-7.94a.21.21,0,0,1,.2-.13.19.19,0,0,1,.2.12L106,13.68a.22.22,0,0,1-.14.27.23.23,0,0,1-.25-.09v0l-3.08-7.37-2.9,7.41A.22.22,0,0,1,99.43,14Z" transform="translate(-2.24 -1.29)"/><path class="cls-1" d="M104.56,11.15h-4a.22.22,0,0,1-.19-.23h0a.21.21,0,0,1,.19-.19h4a.22.22,0,0,1,.19.24h0A.22.22,0,0,1,104.56,11.15Z" transform="translate(-2.24 -1.29)"/><path class="cls-1" d="M105.8,16.08H21.71a.29.29,0,0,1-.25-.31.3.3,0,0,1,.25-.26H105.8a.3.3,0,0,1,.26.32A.29.29,0,0,1,105.8,16.08Z" transform="translate(-2.24 -1.29)"/><path class="cls-1" d="M9.17,11.34A38.05,38.05,0,0,0,7.29,17.7h9.55A2.21,2.21,0,0,0,19,15.56l.21-6.36A41.36,41.36,0,0,0,9.17,11.34Z" transform="translate(-2.24 -1.29)"/><path class="cls-1" d="M7.12,12.16a14.46,14.46,0,0,0-2,1.07,10.74,10.74,0,0,1,2.13-1.74,34.32,34.32,0,0,1,3.39-10L4.5,1.29A2.21,2.21,0,0,0,2.24,3.44v.21l.82,12A2.21,2.21,0,0,0,5.25,17.7H6.8A29.35,29.35,0,0,1,7.12,12.16Z" transform="translate(-2.24 -1.29)"/><path class="cls-1" d="M17.27,1.64l-2.89-.08a43.28,43.28,0,0,0-4.72,8.56,60,60,0,0,1,9.66-3.46l.1-2.74a2.22,2.22,0,0,0-2.13-2.28h0Z" transform="translate(-2.24 -1.29)"/></svg>