<svg id="Capa_1" data-name="Capa 1" xmlns="http://www.w3.org/2000/svg" viewBox="0 0 51.1 48.82"><defs><style>.cls-1{fill:#fff;}</style></defs><path class="cls-1" d="M20.61,29.91A115.31,115.31,0,0,0,15,48.82H43.44A6.58,6.58,0,0,0,50,42.47l.61-18.94A124,124,0,0,0,20.61,29.91Z" transform="translate(0 0)"/><path class="cls-1" d="M14.52,32.34a42.49,42.49,0,0,0-6,3.18,32.15,32.15,0,0,1,6.33-5.18A101.44,101.44,0,0,1,24.94.49L6.72,0A6.57,6.57,0,0,0,0,6.41V7L2.44,42.67A6.57,6.57,0,0,0,9,48.82h4.61A86.56,86.56,0,0,1,14.52,32.34Z" transform="translate(0 0)"/><path class="cls-1" d="M44.73,1.05,36.12.81A128.54,128.54,0,0,0,22.06,26.28c12.56-6.14,27.83-10,28.77-10.29l.27-8.15a6.57,6.57,0,0,0-6.33-6.79h0Z" transform="translate(0 0)"/></svg>