<svg id="Capa_1" data-name="Capa 1" xmlns="http://www.w3.org/2000/svg" viewBox="0 0 149.33 150.08"><defs><style>.cls-1{fill:#1d3556;}</style></defs><path class="cls-1" d="M115.4,124.82c2.09.69,2.51,1.25,2.51,3.31q0,9.41,0,18.81c0,2.28-.83,3.1-3.11,3.1H80.94c-2.37,0-3.15-.8-3.15-3.21q0-9.24,0-18.49c0-2.29.31-2.74,2.51-3.6,0-7.65,0-15.32,0-23,0-8.77,3.84-15.46,11.3-20,7.05-4.26,14.22-8.33,21.3-12.54a4,4,0,0,0,1.58-1.93c3.64-10.31,7.21-20.64,10.79-31a10.12,10.12,0,0,1,10.49-7,9.39,9.39,0,0,1,8.83,7.93,9.37,9.37,0,0,0,3,5.7,8.63,8.63,0,0,1,2.13,8.44C146,65.28,142.31,79.15,138.58,93a12.13,12.13,0,0,1-3.9,5.93c-5.27,4.68-10.48,9.43-15.82,14a9,9,0,0,0-3.47,7.66C115.45,122,115.4,123.37,115.4,124.82Zm-5,.07c0-1.58.06-3,0-4.49-.21-4.63,1.65-8.24,5.12-11.23,5.21-4.51,10.38-9.08,15.44-13.76a9.71,9.71,0,0,0,2.8-4.21c3.75-13.54,7.32-27.14,11-40.72a4.63,4.63,0,0,0-1-4.37,4.39,4.39,0,0,0-4.46-1.66,5.17,5.17,0,0,0-4.1,3.67c-2.29,7.08-4.57,14.17-6.9,21.24-.57,1.7-1.14,3.29,0,5a5,5,0,0,1,.44,2.12A9.39,9.39,0,0,1,124.07,86c-4.75,2.93-9.62,5.68-14.51,8.36a3.29,3.29,0,0,1-2.84-.07,3.05,3.05,0,0,1-.94-2.52,3.3,3.3,0,0,1,1.62-1.9c4.39-2.62,8.83-5.16,13.26-7.7a5.09,5.09,0,0,0,2.91-4,4.76,4.76,0,0,0-2.17-4.73,4.86,4.86,0,0,0-5.46,0q-10.66,6.25-21.33,12.49c-6.24,3.64-9.27,9.11-9.3,16.28s0,14.11,0,21.16v1.59Zm2.44,5.2H82.92v14.85h29.91Zm27-90.88c-.35-2.78-2-4.6-4.24-4.86a5.29,5.29,0,0,0-5.45,3.58c-.7,2-1.37,3.94-2.05,5.9-2.73,7.86-5.46,15.72-8.2,23.64l3.26,1c2.21-6.81,4.55-13.54,6.58-20.37C131.23,42.9,134.27,39.76,139.81,39.21Z" transform="translate(-0.67 0.04)"/><path class="cls-1" d="M70.26,124.8c2.09.72,2.5,1.27,2.5,3.29q0,9.41,0,18.81c0,2.31-.81,3.14-3.07,3.14h-34c-2.2,0-3-.84-3-3q0-9.41,0-18.81c0-2.17.36-2.67,2.49-3.43,0-1.86.08-3.74,0-5.61a8.1,8.1,0,0,0-3-5.8c-5.29-4.66-10.52-9.39-15.82-14a14.89,14.89,0,0,1-4.71-7.73Q6.49,72.28,1.22,53c-1.34-4.92-.3-8.94,3.84-12.07a1.88,1.88,0,0,0,.57-1.44A9.92,9.92,0,0,1,13.76,29.4a10.34,10.34,0,0,1,11.63,7.11q5.3,15.52,10.73,31a3.21,3.21,0,0,0,1.32,1.57c7.13,4.24,14.32,8.37,21.43,12.64,7.49,4.5,11.33,11.17,11.38,19.93C70.29,109.33,70.26,117,70.26,124.8Zm-5.05.1c0-8.25.21-16.35-.07-24.43-.22-6.25-3.33-11.12-8.76-14.34C49.21,81.87,42,77.68,34.78,73.48c-2.78-1.62-5.76-.93-7.19,1.6s-.57,5.37,2.26,7c4.47,2.59,8.95,5.16,13.41,7.76,1.65,1,2.13,2.45,1.31,3.79s-2.2,1.55-3.84.61c-4.57-2.62-9.14-5.23-13.68-7.91-4.86-2.86-6.46-8.07-4.19-13.24a2.37,2.37,0,0,0,.22-1.46c-2.55-8-5.07-16-7.75-23.92a5,5,0,0,0-7.49-2.52c-1.92,1.34-2.53,3.48-1.78,6.29,3.39,12.56,6.86,25.11,10.11,37.71a13.81,13.81,0,0,0,4.62,7.38c5,4.31,10,8.77,14.9,13.19a12.56,12.56,0,0,1,4.47,10.1c0,1.65,0,3.31,0,5Zm-27.49,20h29.9V130.06H37.72Zm-7-77.44c-.51-1.48-1-2.91-1.48-4.33q-4.35-12.54-8.7-25.07a5.38,5.38,0,0,0-5.83-3.69,4.81,4.81,0,0,0-3.83,4.79c6,1.2,8.08,3,10,9q3.28,10.1,6.55,20.21Z" transform="translate(-0.67 0.04)"/><path class="cls-1" d="M75.31,7.29A26.34,26.34,0,0,1,88.74.37C101.59-2.13,115.09,7,117.57,19.9a24.74,24.74,0,0,1-7.16,23.34Q94.17,59.56,77.85,75.82c-2.07,2.07-3.07,2.08-5.11,0C61.67,64.78,50.52,53.77,39.53,42.59a25,25,0,0,1,10-41.24C58.48-1.57,66.64.15,73.9,6.1Zm-.09,63.78c11-10.93,21.89-21.67,32.64-32.56A18,18,0,0,0,113,25.26c-.06-7.8-3.45-13.81-10.27-17.59S89,4.17,82.36,8.26a37.79,37.79,0,0,0-5,4.23c-1.47,1.3-2.7,1.35-4.11,0-.72-.68-1.4-1.41-2.13-2.09a20,20,0,0,0-27.61,29C53.77,49.75,64.11,60,74.41,70.33,74.67,70.58,74.94,70.82,75.22,71.07Z" transform="translate(-0.67 0.04)"/><path class="cls-1" d="M67.75,27.14c0-2.52,0-4.82,0-7.11,0-2,.87-2.9,2.82-2.92,3.13,0,6.26,0,9.4,0,2,0,2.81.91,2.82,2.91,0,2.29,0,4.58,0,7.12h6.72c2.58,0,3.31.74,3.31,3.36v8.31c0,2.67-.73,3.37-3.46,3.38H82.8v7c0,2.26-.84,3.07-3.14,3.08H71.05c-2.52,0-3.29-.76-3.3-3.23,0-2.09,0-4.17,0-6.26,0-.1,0-.2-.1-.54H61c-2.58,0-3.31-.75-3.31-3.37V31c0-3.28.55-3.84,3.77-3.84Zm-4.94,10H67.9c4.69,0,4.86.18,4.86,4.8V47.1h5c0-2.35,0-4.59,0-6.83s.81-3.09,3.1-3.09H87.7v-5H83c-5.24,0-5.26,0-5.26-5.18V22.2h-5c0,2.41,0,4.75,0,7.09,0,2-.89,2.85-2.87,2.86-2.34,0-4.67,0-7.08,0Z" transform="translate(-0.67 0.04)"/></svg>